<svg xmlns="http://www.w3.org/2000/svg" xmlns:xlink="http://www.w3.org/1999/xlink" version="1.1" id="Layer_1" x="0px" y="0px" viewBox="0 0 4000 4000" style="enable-background:new 0 0 4000 4000;" xml:space="preserve">
<style type="text/css">
	.st0{fill:none;}
	.st1{fill:#666666;} /* changed from light red to light black/gray */
	.st2{fill:#FFFFFF;}
	.st3{fill:#1A1A1A;}
</style>
<g>
	<path class="st0" d="M2147.4,3550.8C2147.4,3550.8,2147.4,3550.8,2147.4,3550.8c-1.9-4.6-2.5-7.7-2.6-7.8l-34.5-216.9l-8.2-51.3   c-3.8-1.7-7.5-3.7-11-6.2c-0.5-0.3-0.9-0.8-1.2-1.3c-46.1-76.3-91-260.3-133.7-547.5c-11,24.9-22.5,50.5-34.5,76.7   c-124,269.9-261.3,512.6-262.7,515c-0.7,1.2-1.9,2-3.3,2.2c-0.2,0-5.7,0.6-14.7,0.6c-1.2,0-2.5,0-3.9,0l-0.6,1.9l-9.8,28.7   c4.6,3.1,14.7,9.8,28.6,18.7c15.4-7.4,32.4-11.5,35.5-12.2c2.4-0.6,4.7,0.9,5.3,3.3c0.5,2.4-0.9,4.7-3.3,5.3   c-6.3,1.4-17.7,4.7-28.5,9.3c5.6,3.5,11.6,7.3,18,11.2c16.1-8.6,35.4-13.4,56.4,1.7c6.3,4.5,14.5,11.4,13.1,19   c-1.1,5.8-6.8,9.1-14.6,11.7c5.2,2.9,10.5,5.9,15.9,8.8c5.7-7.3,10.7-13.5,17.1-13.7c3.3-0.2,6.4,1.4,9.1,4.5   c6.5,7.3,7.5,16.8,6.1,26.1c3.9,2,7.8,3.9,11.7,5.7c66.7,32,93.7,111.5,102.2,144.2c1.7,6.5,2.8,11.4,3.4,14.6h301.1   C2166.9,3588.8,2152.4,3563.2,2147.4,3550.8z"/>
	<path class="st0" d="M1743.1,3399.4c0-0.1,0.4-3.1-9.6-10.2c-15.4-11-29.5-9.3-42.5-3.4c11,6.7,22.9,13.8,35.4,20.9   C1733.7,3404.8,1742.6,3402.1,1743.1,3399.4z"/>
	<path class="st0" d="M1500.5,3254.7c-2.1-2.7-4.2-5.5-6.3-8.4c-0.4-0.6-0.7-1.4-0.8-2.1c-11.4-140.5,10.2-285.1,43.2-414l-35.3-248   h-105l-32.2,36.9c-31.9,156.2-121.3,291.5-245.1,382.8l341.4,383.9c5.8-29.5,14.3-60.4,25.3-92.2   C1491.4,3277.7,1496.6,3264.4,1500.5,3254.7z"/>
	<path class="st0" d="M1611.3,2599.6c58.4-150,120.6-262.1,139.5-294.9c-27.3,8.2-103.5,29.7-197.4,44.5   c43.9,18.2,74.8,61.5,74.8,111.9c0,27.4-9,53.3-26,74.9c-22.5,28.5-55.9,45.2-92,46.1l32.2,226.1   C1563.3,2730.9,1587.8,2659.9,1611.3,2599.6z"/>
	<path class="st0" d="M1384.7,2582.2h-14.2c-0.9,6.6-2,13.2-3.1,19.8L1384.7,2582.2z"/>
	<path class="st0" d="M1772.7,3418.2c-0.5-0.6-1.5-1.5-2.2-1.5c-2.2,0.1-6,4.6-9.5,9.1c5.3,2.8,10.6,5.6,16,8.4   C1777.5,3428,1776.4,3422.4,1772.7,3418.2z"/>
	<path class="st0" d="M574.5,3102.2L548.8,3289c15.8-4.2,32.3-6.5,49.4-6.5c50.2,0,95.8,19.4,129.9,51l208.2-238.2   c-60.7,19.4-125.5,29.9-192.6,29.9C685.1,3125.1,628.4,3117.1,574.5,3102.2z"/>
	<path class="st0" d="M1454.8,3424.9c-0.3-0.7-0.3-1.4-0.3-2.1c0.8-6.3,1.7-12.8,2.9-19.7c0.3-2.1,0.8-4.2,1.1-6.3L1112,3007.1   c-48.4,34.6-101.9,62.6-159.1,82.6l-218.4,249.9c33.9,34.5,54.9,81.8,54.9,133.9c0,50-19.2,95.4-50.6,129.4h903.2l-1.8-2   C1543,3573.8,1480,3491.1,1454.8,3424.9z"/>
	<path class="st1" d="M3919.7,1417.8c5,12.7,7.8,26.6,7.8,41.1l0,29c0.1,62.2-50.4,112.8-112.6,112.9l-1239.2,1.7c0,0-0.1,0-0.2,0   c-23.1,0-44.5-7-62.4-18.9c19.2,30.7,53.2,51.1,92.1,51.1l1239.2-1.7c59.8-0.1,108.2-48.6,108.2-108.5l0-29   C3952.6,1464.9,3940,1437.4,3919.7,1417.8z"/>
	<path class="st1" d="M3927.1,984.3c0,30.1-11.6,58.4-32.9,79.8c-21.3,21.3-49.6,33.1-79.7,33.1l-1239.2,1.7c0,0-0.1,0-0.2,0   c-23.2,0-44.7-7-62.6-19.1c19.1,30.9,53.3,51.5,92.3,51.4l1239.2-1.7c59.8-0.1,108.2-48.6,108.2-108.5l0-29   c0-30.4-12.6-57.8-32.8-77.5c4.9,12.6,7.7,26.3,7.7,40.7L3927.1,984.3z"/>
	<path class="st2" d="M2575.2,1090c0,0,0.1,0,0.1,0l1239.2-1.7c27.8,0,53.8-10.9,73.4-30.5c19.6-19.7,30.4-45.8,30.3-73.5l0-29   c-0.1-57.2-46.7-103.8-103.9-103.8c0,0-0.1,0-0.1,0L2575,853.2c-57.3,0.1-103.8,46.8-103.8,104l0,8.3c27.8-2.4,43.7-1,49.8,7.2   c3.6,4.8,3.5,11.1-0.2,19.2c-6.4,14.2-24.2,20.4-45.7,22.3C2487.6,1058,2527.7,1090,2575.2,1090z M2937.7,995.3   c3.3,3.3,5.1,7.6,5.1,12.2c0,4.6-1.8,9-5.1,12.2c-3.3,3.3-7.6,5.1-12.2,5.1s-9-1.8-12.2-5.1l-24.5-24.5l-24.5,24.5   c-3.3,3.3-7.6,5.1-12.2,5.1c-4.6,0-9-1.8-12.2-5.1c-3.3-3.3-5.1-7.6-5.1-12.2c0-4.6,1.8-9,5.1-12.2l24.5-24.5l-24.5-24.5   c-6.7-6.7-6.7-17.7,0-24.5c6.7-6.7,17.7-6.7,24.5,0l24.5,24.5l24.5-24.5c6.7-6.7,17.7-6.7,24.5,0c3.3,3.3,5.1,7.6,5.1,12.2   c0,4.6-1.8,9-5.1,12.2l-24.5,24.5L2937.7,995.3z M3142.4,1019.8c-3.3,3.3-7.6,5.1-12.2,5.1c-4.6,0-9-1.8-12.2-5.1l-24.5-24.5   l-24.5,24.5c-3.3,3.3-7.6,5.1-12.2,5.1c-4.6,0-9-1.8-12.2-5.1c-3.3-3.3-5.1-7.6-5.1-12.2c0-4.6,1.8-9,5.1-12.2l24.5-24.5   l-24.5-24.5c-3.3-3.3-5.1-7.6-5.1-12.2c0-4.6,1.8-9,5.1-12.2c6.7-6.7,17.7-6.7,24.5,0l24.5,24.5l24.5-24.5c6.7-6.7,17.7-6.7,24.5,0   c6.7,6.7,6.7,17.7,0,24.5l-24.5,24.5l24.5,24.5c3.3,3.3,5.1,7.6,5.1,12.2C3147.5,1012.2,3145.7,1016.5,3142.4,1019.8z    M3372.9,995.3c3.3,3.3,5.1,7.6,5.1,12.2c0,4.6-1.8,9-5.1,12.2c-3.3,3.3-7.6,5.1-12.2,5.1c-4.6,0-9-1.8-12.2-5.1l-24.5-24.5   l-24.5,24.5c-3.3,3.3-7.6,5.1-12.2,5.1c-4.6,0-9-1.8-12.2-5.1c-3.3-3.3-5.1-7.6-5.1-12.2c0-4.6,1.8-9,5.1-12.2l24.5-24.5   l-24.5-24.5c-6.7-6.7-6.7-17.7,0-24.5c6.7-6.7,17.7-6.7,24.5,0l24.5,24.5l24.5-24.5c6.7-6.7,17.7-6.7,24.5,0   c3.3,3.3,5.1,7.6,5.1,12.2c0,4.6-1.8,9-5.1,12.2l-24.5,24.5L3372.9,995.3z M2630.3,873.7c19,0,34.5,15.5,34.5,34.4   c0,11-5.2,20.8-13.2,27.1c23.7,5.5,41.4,26.8,41.4,52.2v17.6c0,23.6-19.2,42.8-42.8,42.8h-39.7c-23.6,0-42.8-19.2-42.8-42.8v-17.6   c0-25.4,17.7-46.6,41.4-52.2c-8-6.3-13.2-16.1-13.2-27.1C2595.9,889.2,2611.3,873.7,2630.3,873.7z"/>
	<path class="st3" d="M2471.3,965.6l0-8.3c-0.1-57.3,46.5-104,103.8-104l1239.2-1.7c0,0,0.1,0,0.1,0c57.2,0,103.8,46.5,103.9,103.8   l0,29c0,27.8-10.7,53.9-30.3,73.5c-19.6,19.7-45.7,30.5-73.4,30.5l-1239.2,1.7c0,0-0.1,0-0.1,0c-47.5,0-87.6-32-100-75.6   c-2.9,0.3-5.9,0.5-9,0.6c7.1,26.8,23.9,49.8,46.3,64.8c17.9,12,39.5,19.1,62.6,19.1c0,0,0.1,0,0.2,0l1239.2-1.7   c30.1,0,58.4-11.8,79.7-33.1c21.3-21.3,32.9-49.6,32.9-79.8l0-29c0-14.4-2.8-28.1-7.7-40.7c-16.4-42-57.3-71.9-105-71.9   c0,0-0.1,0-0.2,0L2575,844.4c-62.2,0.1-112.7,50.7-112.6,112.9l0,9.1C2465.5,966.1,2468.4,965.8,2471.3,965.6z"/>
	<path class="st2" d="M2575.7,1593.5c0,0,0.1,0,0.1,0l1239.2-1.7c57.3-0.1,103.8-46.8,103.8-104l0-29   c-0.1-57.2-46.7-103.8-103.9-103.8c0,0-0.1,0-0.1,0l-1239.2,1.7c-27.8,0-53.8,10.9-73.4,30.5c-19.6,19.7-30.4,45.8-30.3,73.5l0,29   C2471.8,1547,2518.4,1593.5,2575.7,1593.5z M2706.7,1545.6c0,2.4-2,4.4-4.4,4.4h-123.8c-2.4,0-4.4-2-4.4-4.4v-92.4   c0-2.4,2-4.4,4.4-4.4h12.7c2-28,23.3-50.1,49.2-50.1s47.1,22.1,49.2,50.1h12.7c2.4,0,4.4,2,4.4,4.4V1545.6z M2936.9,1499.4   c6.3,6.3,6.3,16.5,0,22.8c-3.2,3.2-7.3,4.7-11.4,4.7s-8.3-1.6-11.4-4.7l-25.3-25.3l-25.3,25.3c-3.2,3.2-7.3,4.7-11.4,4.7   c-4.1,0-8.3-1.6-11.4-4.7c-6.3-6.3-6.3-16.5,0-22.8l25.3-25.3l-25.3-25.3c-6.3-6.3-6.3-16.5,0-22.8c6.3-6.3,16.5-6.3,22.8,0   l25.3,25.3l25.3-25.3c6.3-6.3,16.5-6.3,22.8,0c6.3,6.3,6.3,16.5,0,22.8l-25.3,25.3L2936.9,1499.4z M3154.5,1499.4   c6.3,6.3,6.3,16.5,0,22.8c-3.2,3.2-7.3,4.7-11.4,4.7c-4.1,0-8.3-1.6-11.4-4.7l-25.3-25.3l-25.3,25.3c-3.2,3.2-7.3,4.7-11.4,4.7   c-4.1,0-8.3-1.6-11.4-4.7c-6.3-6.3-6.3-16.5,0-22.8l25.3-25.3l-25.3-25.3c-6.3-6.3-6.3-16.5,0-22.8c6.3-6.3,16.5-6.3,22.8,0   l25.3,25.3l25.3-25.3c6.3-6.3,16.5-6.3,22.8,0c6.3,6.3,6.3,16.5,0,22.8l-25.3,25.3L3154.5,1499.4z M3372.1,1499.4   c6.3,6.3,6.3,16.5,0,22.8c-3.2,3.2-7.3,4.7-11.4,4.7c-4.1,0-8.3-1.6-11.4-4.7l-25.3-25.3l-25.3,25.3c-3.2,3.2-7.3,4.7-11.4,4.7   c-4.1,0-8.3-1.6-11.4-4.7c-6.3-6.3-6.3-16.5,0-22.8l25.3-25.3l-25.3-25.3c-6.3-6.3-6.3-16.5,0-22.8c6.3-6.3,16.5-6.3,22.8,0   l25.3,25.3l25.3-25.3c6.3-6.3,16.5-6.3,22.8,0c6.3,6.3,6.3,16.5,0,22.8l-25.3,25.3L3372.1,1499.4z M3589.7,1499.4   c6.3,6.3,6.3,16.5,0,22.8c-3.2,3.2-7.3,4.7-11.4,4.7c-4.1,0-8.3-1.6-11.4-4.7l-25.3-25.3l-25.3,25.3c-3.2,3.2-7.3,4.7-11.4,4.7   c-4.1,0-8.3-1.6-11.4-4.7c-6.3-6.3-6.3-16.5,0-22.8l25.3-25.3l-25.3-25.3c-6.3-6.3-6.3-16.5,0-22.8c6.3-6.3,16.5-6.3,22.8,0   l25.3,25.3l25.3-25.3c6.3-6.3,16.5-6.3,22.8,0c6.3,6.3,6.3,16.5,0,22.8l-25.3,25.3L3589.7,1499.4z M3807.3,1499.4   c6.3,6.3,6.3,16.5,0,22.8c-3.2,3.2-7.3,4.7-11.4,4.7s-8.3-1.6-11.4-4.7l-25.3-25.3l-25.3,25.3c-3.2,3.2-7.3,4.7-11.4,4.7   c-4.1,0-8.3-1.6-11.4-4.7c-6.3-6.3-6.3-16.5,0-22.8l25.3-25.3l-25.3-25.3c-6.3-6.3-6.3-16.5,0-22.8c6.3-6.3,16.5-6.3,22.8,0   l25.3,25.3l25.3-25.3c6.3-6.3,16.5-6.3,22.8,0c6.3,6.3,6.3,16.5,0,22.8l-25.3,25.3L3807.3,1499.4z"/>
	<path class="st2" d="M2640.4,1419.7c-14.4,0-26.2,12.7-28,29h56.1C2666.6,1432.4,2654.7,1419.7,2640.4,1419.7z"/>
	<path class="st3" d="M2575.8,1602.3l1239.2-1.7c62.2-0.1,112.6-50.7,112.6-112.9l0-29c0-14.5-2.8-28.3-7.8-41.1   c-16.5-41.8-57.3-71.5-104.9-71.5c0,0-0.1,0-0.2,0l-1239.2,1.7c-30.1,0-58.4,11.8-79.7,33.1c-21.3,21.3-32.9,49.6-32.9,79.7l0,29   c0.1,39,20.1,73.5,50.3,93.7c17.9,11.9,39.3,18.9,62.4,18.9C2575.7,1602.3,2575.8,1602.3,2575.8,1602.3z M2471.7,1460.8   c0-27.8,10.7-53.9,30.3-73.5c19.6-19.7,45.7-30.5,73.4-30.5l1239.2-1.7c0,0,0.1,0,0.1,0c57.2,0,103.8,46.5,103.9,103.8l0,29   c0.1,57.3-46.5,104-103.8,104l-1239.2,1.7c0,0-0.1,0-0.1,0c-57.2,0-103.8-46.5-103.9-103.8L2471.7,1460.8z"/>
	<path d="M2640.4,1407.5c-21,0-38.4,18.2-40.4,41.3h3.4c1.9-21.2,17.8-37.9,36.9-37.9s35,16.6,36.9,37.9h3.4   C2678.7,1425.6,2661.4,1407.5,2640.4,1407.5z"/>
	<path d="M2600,1448.8c2-23.1,19.3-41.3,40.4-41.3s38.4,18.2,40.4,41.3h8.8c-2-28-23.3-50.1-49.2-50.1s-47.1,22.1-49.2,50.1H2600z"/>
	<path d="M2640.4,1410.9c-19.2,0-35,16.6-36.9,37.9h8.9c1.8-16.4,13.7-29,28-29s26.2,12.7,28,29h8.9   C2675.3,1427.5,2659.5,1410.9,2640.4,1410.9z"/>
	<rect x="2582.8" y="1457.6" width="115" height="83.6"/>
	<path d="M2702.3,1448.8h-12.7h-8.8h-3.4h-8.9h-56.1h-8.9h-3.4h-8.8h-12.7c-2.4,0-4.4,2-4.4,4.4v92.4c0,2.4,2,4.4,4.4,4.4h123.8   c2.4,0,4.4-2,4.4-4.4v-92.4C2706.7,1450.8,2704.7,1448.8,2702.3,1448.8z M2697.9,1541.2h-115v-83.6h115V1541.2z"/>
	<path d="M2576.5,987.4v17.6c0,18.7,15.2,34,34,34h39.7c18.7,0,34-15.2,34-34v-17.6c0-24.7-20.1-44.8-44.8-44.8h-9h-9   C2596.6,942.6,2576.5,962.7,2576.5,987.4z"/>
	<path d="M2630.3,942.6h9c24.7,0,44.8,20.1,44.8,44.8v17.6c0,18.7-15.2,34-34,34h-39.7c-18.7,0-34-15.2-34-34v-17.6   c0-24.7,20.1-44.8,44.8-44.8H2630.3c-8,0-15.4-2.8-21.2-7.4c-23.7,5.5-41.4,26.8-41.4,52.2v17.6c0,23.6,19.2,42.8,42.8,42.8h39.7   c23.6,0,42.8-19.2,42.8-42.8v-17.6c0-25.4-17.7-46.6-41.4-52.2C2645.7,939.9,2638.3,942.6,2630.3,942.6z"/>
	<path d="M2604.7,908.2c0,14.1,11.5,25.6,25.6,25.6c14.1,0,25.6-11.5,25.6-25.6c0-14.1-11.5-25.6-25.6-25.6   C2616.2,882.5,2604.7,894,2604.7,908.2z"/>
	<path d="M2595.9,908.2c0,11,5.2,20.8,13.2,27.1c5.9,4.6,13.2,7.4,21.2,7.4c8,0,15.4-2.8,21.2-7.4c8-6.3,13.2-16.1,13.2-27.1   c0-19-15.5-34.4-34.5-34.4C2611.3,873.7,2595.9,889.2,2595.9,908.2z M2656,908.2c0,14.1-11.5,25.6-25.6,25.6   c-14.1,0-25.6-11.5-25.6-25.6c0-14.1,11.5-25.6,25.6-25.6C2644.5,882.5,2656,894,2656,908.2z"/>
	<path class="st2" d="M3354.7,928.1l-27.6,27.6c-1.7,1.7-4.6,1.7-6.2,0l-27.6-27.6c-3.3-3.3-8.7-3.3-12,0c-1.6,1.6-2.5,3.7-2.5,6   c0,2.3,0.9,4.4,2.5,6l27.6,27.6c1.7,1.7,1.7,4.5,0,6.2l-27.6,27.6c-1.6,1.6-2.5,3.7-2.5,6c0,2.3,0.9,4.4,2.5,6   c3.2,3.2,8.8,3.2,12,0l27.6-27.6c0.8-0.8,1.9-1.3,3.1-1.3c1.2,0,2.3,0.5,3.1,1.3l27.6,27.6c3.2,3.2,8.8,3.2,12,0   c1.6-1.6,2.5-3.7,2.5-6c0-2.3-0.9-4.4-2.5-6l-27.6-27.6c-0.8-0.8-1.3-1.9-1.3-3.1c0-1.2,0.5-2.3,1.3-3.1l27.6-27.6   c1.6-1.6,2.5-3.7,2.5-6c0-2.3-0.9-4.4-2.5-6C3363.4,924.8,3358,924.8,3354.7,928.1z"/>
	<path class="st3" d="M3378,934.1c0-4.6-1.8-9-5.1-12.2c-6.7-6.7-17.7-6.7-24.5,0l-24.5,24.5l-24.5-24.5c-6.7-6.7-17.7-6.7-24.5,0   c-6.7,6.7-6.7,17.7,0,24.5l24.5,24.5l-24.5,24.5c-3.3,3.3-5.1,7.6-5.1,12.2c0,4.6,1.8,9,5.1,12.2c3.3,3.3,7.6,5.1,12.2,5.1   c4.6,0,9-1.8,12.2-5.1l24.5-24.5l24.5,24.5c3.3,3.3,7.6,5.1,12.2,5.1c4.6,0,9-1.8,12.2-5.1c3.3-3.3,5.1-7.6,5.1-12.2   c0-4.6-1.8-9-5.1-12.2l-24.5-24.5l24.5-24.5C3376.2,943.1,3378,938.7,3378,934.1z M3366.7,940.1l-27.6,27.6   c-0.8,0.8-1.3,1.9-1.3,3.1c0,1.2,0.5,2.3,1.3,3.1l27.6,27.6c1.6,1.6,2.5,3.7,2.5,6c0,2.3-0.9,4.4-2.5,6c-3.2,3.2-8.8,3.2-12,0   l-27.6-27.6c-0.8-0.8-1.9-1.3-3.1-1.3c-1.2,0-2.3,0.5-3.1,1.3l-27.6,27.6c-3.2,3.2-8.8,3.2-12,0c-1.6-1.6-2.5-3.7-2.5-6   c0-2.3,0.9-4.4,2.5-6l27.6-27.6c1.7-1.7,1.7-4.5,0-6.2l-27.6-27.6c-1.6-1.6-2.5-3.7-2.5-6c0-2.3,0.9-4.4,2.5-6   c3.3-3.3,8.7-3.3,12,0l27.6,27.6c1.7,1.7,4.6,1.7,6.2,0l27.6-27.6c3.3-3.3,8.7-3.3,12,0c1.6,1.6,2.5,3.7,2.5,6   C3369.2,936.4,3368.3,938.5,3366.7,940.1z"/>
	<path class="st2" d="M2919.5,928.1l-27.6,27.6c-1.7,1.7-4.6,1.7-6.2,0l-27.6-27.6c-3.3-3.3-8.7-3.3-12,0c-1.6,1.6-2.5,3.7-2.5,6   c0,2.3,0.9,4.4,2.5,6l27.6,27.6c0.8,0.8,1.3,1.9,1.3,3.1c0,1.2-0.5,2.3-1.3,3.1l-27.6,27.6c-1.6,1.6-2.5,3.7-2.5,6   c0,2.3,0.9,4.4,2.5,6c3.2,3.2,8.8,3.2,12,0l27.6-27.6c0.8-0.8,1.9-1.3,3.1-1.3c1.2,0,2.3,0.5,3.1,1.3l27.6,27.6   c3.2,3.2,8.8,3.2,12,0c1.6-1.6,2.5-3.7,2.5-6c0-2.3-0.9-4.4-2.5-6l-27.6-27.6c-0.8-0.8-1.3-1.9-1.3-3.1c0-1.2,0.5-2.3,1.3-3.1   l27.6-27.6c1.6-1.6,2.5-3.7,2.5-6c0-2.3-0.9-4.4-2.5-6C2928.2,924.8,2922.8,924.8,2919.5,928.1z"/>
	<path class="st3" d="M2942.8,934.1c0-4.6-1.8-9-5.1-12.2c-6.7-6.7-17.7-6.7-24.5,0l-24.5,24.5l-24.5-24.5c-6.7-6.7-17.7-6.7-24.5,0   c-6.7,6.7-6.7,17.7,0,24.5l24.5,24.5l-24.5,24.5c-3.3,3.3-5.1,7.6-5.1,12.2c0,4.6,1.8,9,5.1,12.2c3.3,3.3,7.6,5.1,12.2,5.1   c4.6,0,9-1.8,12.2-5.1l24.5-24.5l24.5,24.5c3.3,3.3,7.6,5.1,12.2,5.1s9-1.8,12.2-5.1c3.3-3.3,5.1-7.6,5.1-12.2   c0-4.6-1.8-9-5.1-12.2l-24.5-24.5l24.5-24.5C2941,943.1,2942.8,938.7,2942.8,934.1z M2931.5,940.1l-27.6,27.6   c-0.8,0.8-1.3,1.9-1.3,3.1c0,1.2,0.5,2.3,1.3,3.1l27.6,27.6c1.6,1.6,2.5,3.7,2.5,6c0,2.3-0.9,4.4-2.5,6c-3.2,3.2-8.8,3.2-12,0   l-27.6-27.6c-0.8-0.8-1.9-1.3-3.1-1.3c-1.2,0-2.3,0.5-3.1,1.3l-27.6,27.6c-3.2,3.2-8.8,3.2-12,0c-1.6-1.6-2.5-3.7-2.5-6   c0-2.3,0.9-4.4,2.5-6l27.6-27.6c0.8-0.8,1.3-1.9,1.3-3.1c0-1.2-0.5-2.3-1.3-3.1l-27.6-27.6c-1.6-1.6-2.5-3.7-2.5-6   c0-2.3,0.9-4.4,2.5-6c3.3-3.3,8.7-3.3,12,0l27.6,27.6c1.7,1.7,4.6,1.7,6.2,0l27.6-27.6c3.3-3.3,8.7-3.3,12,0c1.6,1.6,2.5,3.7,2.5,6   C2934,936.4,2933.1,938.5,2931.5,940.1z"/>
	<path class="st2" d="M3108.6,973.9c-0.8-0.8-1.3-1.9-1.3-3.1c0-1.2,0.5-2.3,1.3-3.1l27.6-27.6c1.6-1.6,2.5-3.7,2.5-6   c0-2.3-0.9-4.4-2.5-6c-3.3-3.3-8.7-3.3-12,0l-27.6,27.6c-1.7,1.7-4.5,1.7-6.2,0l-27.6-27.6c-3.3-3.3-8.7-3.3-12,0   c-1.6,1.6-2.5,3.7-2.5,6c0,2.3,0.9,4.4,2.5,6l27.6,27.6c1.7,1.7,1.7,4.5,0,6.2l-27.6,27.6c-1.6,1.6-2.5,3.7-2.5,6   c0,2.3,0.9,4.4,2.5,6c3.2,3.2,8.8,3.2,12,0l27.6-27.6c0.9-0.9,2-1.3,3.1-1.3c1.1,0,2.3,0.4,3.1,1.3l27.6,27.6c3.2,3.2,8.8,3.2,12,0   c1.6-1.6,2.5-3.7,2.5-6c0-2.3-0.9-4.4-2.5-6L3108.6,973.9z"/>
	<path class="st3" d="M3117.9,970.8l24.5-24.5c6.7-6.7,6.7-17.7,0-24.5c-6.7-6.7-17.7-6.7-24.5,0l-24.5,24.5l-24.5-24.5   c-6.7-6.7-17.7-6.7-24.5,0c-3.3,3.3-5.1,7.6-5.1,12.2c0,4.6,1.8,9,5.1,12.2l24.5,24.5l-24.5,24.5c-3.3,3.3-5.1,7.6-5.1,12.2   c0,4.6,1.8,9,5.1,12.2c3.3,3.3,7.6,5.1,12.2,5.1c4.6,0,9-1.8,12.2-5.1l24.5-24.5l24.5,24.5c3.3,3.3,7.6,5.1,12.2,5.1   c4.6,0,9-1.8,12.2-5.1c3.3-3.3,5.1-7.6,5.1-12.2c0-4.6-1.8-9-5.1-12.2L3117.9,970.8z M3136.2,1013.6c-3.2,3.2-8.8,3.2-12,0   l-27.6-27.6c-0.9-0.9-2-1.3-3.1-1.3c-1.1,0-2.3,0.4-3.1,1.3l-27.6,27.6c-3.2,3.2-8.8,3.2-12,0c-1.6-1.6-2.5-3.7-2.5-6   c0-2.3,0.9-4.4,2.5-6l27.6-27.6c1.7-1.7,1.7-4.5,0-6.2l-27.6-27.6c-1.6-1.6-2.5-3.7-2.5-6c0-2.3,0.9-4.4,2.5-6   c3.3-3.3,8.7-3.3,12,0l27.6,27.6c1.7,1.7,4.5,1.7,6.2,0l27.6-27.6c3.3-3.3,8.7-3.3,12,0c1.6,1.6,2.5,3.7,2.5,6c0,2.3-0.9,4.4-2.5,6   l-27.6,27.6c-0.8,0.8-1.3,1.9-1.3,3.1c0,1.2,0.5,2.3,1.3,3.1l27.6,27.6c1.6,1.6,2.5,3.7,2.5,6   C3138.7,1009.8,3137.8,1012,3136.2,1013.6z"/>
	<path d="M2888.8,1451.3l-25.3-25.3c-6.3-6.3-16.5-6.3-22.8,0c-6.3,6.3-6.3,16.5,0,22.8l25.3,25.3L2888.8,1451.3z"/>
	<path d="M2888.8,1497l25.3,25.3c3.2,3.2,7.3,4.7,11.4,4.7s8.3-1.6,11.4-4.7c6.3-6.3,6.3-16.5,0-22.8l-25.3-25.3L2888.8,1497z"/>
	<path d="M2936.9,1426c-6.3-6.3-16.5-6.3-22.8,0l-25.3,25.3l-22.8,22.8l-25.3,25.3c-6.3,6.3-6.3,16.5,0,22.8   c3.2,3.2,7.3,4.7,11.4,4.7c4.1,0,8.3-1.6,11.4-4.7l25.3-25.3l22.8-22.8l25.3-25.3C2943.2,1442.5,2943.2,1432.3,2936.9,1426z"/>
	<path d="M3106.3,1451.3L3081,1426c-6.3-6.3-16.5-6.3-22.8,0c-6.3,6.3-6.3,16.5,0,22.8l25.3,25.3L3106.3,1451.3z"/>
	<path d="M3106.3,1497l25.3,25.3c3.2,3.2,7.3,4.7,11.4,4.7c4.1,0,8.3-1.6,11.4-4.7c6.3-6.3,6.3-16.5,0-22.8l-25.3-25.3L3106.3,1497z   "/>
	<path d="M3154.5,1426c-6.3-6.3-16.5-6.3-22.8,0l-25.3,25.3l-22.8,22.8l-25.3,25.3c-6.3,6.3-6.3,16.5,0,22.8   c3.2,3.2,7.3,4.7,11.4,4.7c4.1,0,8.3-1.6,11.4-4.7l25.3-25.3l22.8-22.8l25.3-25.3C3160.8,1442.5,3160.8,1432.3,3154.5,1426z"/>
	<path d="M3323.9,1497l25.3,25.3c3.2,3.2,7.3,4.7,11.4,4.7c4.1,0,8.3-1.6,11.4-4.7c6.3-6.3,6.3-16.5,0-22.8l-25.3-25.3L3323.9,1497z   "/>
	<path d="M3323.9,1451.3l-25.3-25.3c-6.3-6.3-16.5-6.3-22.8,0c-6.3,6.3-6.3,16.5,0,22.8l25.3,25.3L3323.9,1451.3z"/>
	<path d="M3372.1,1426c-6.3-6.3-16.5-6.3-22.8,0l-25.3,25.3l-22.8,22.8l-25.3,25.3c-6.3,6.3-6.3,16.5,0,22.8   c3.2,3.2,7.3,4.7,11.4,4.7c4.1,0,8.3-1.6,11.4-4.7l25.3-25.3l22.8-22.8l25.3-25.3C3378.4,1442.5,3378.4,1432.3,3372.1,1426z"/>
	<path d="M3541.5,1497l25.3,25.3c3.2,3.2,7.3,4.7,11.4,4.7c4.1,0,8.3-1.6,11.4-4.7c6.3-6.3,6.3-16.5,0-22.8l-25.3-25.3L3541.5,1497z   "/>
	<path d="M3541.5,1451.3l-25.3-25.3c-6.3-6.3-16.5-6.3-22.8,0c-6.3,6.3-6.3,16.5,0,22.8l25.3,25.3L3541.5,1451.3z"/>
	<path d="M3589.7,1426c-6.3-6.3-16.5-6.3-22.8,0l-25.3,25.3l-22.8,22.8l-25.3,25.3c-6.3,6.3-6.3,16.5,0,22.8   c3.2,3.2,7.3,4.7,11.4,4.7c4.1,0,8.3-1.6,11.4-4.7l25.3-25.3l22.8-22.8l25.3-25.3C3596,1442.5,3596,1432.3,3589.7,1426z"/>
	<path d="M3759.1,1451.3l-25.3-25.3c-6.3-6.3-16.5-6.3-22.8,0c-6.3,6.3-6.3,16.5,0,22.8l25.3,25.3L3759.1,1451.3z"/>
	<path d="M3759.1,1497l25.3,25.3c3.2,3.2,7.3,4.7,11.4,4.7s8.3-1.6,11.4-4.7c6.3-6.3,6.3-16.5,0-22.8l-25.3-25.3L3759.1,1497z"/>
	<path d="M3807.3,1426c-6.3-6.3-16.5-6.3-22.8,0l-25.3,25.3l-22.8,22.8l-25.3,25.3c-6.3,6.3-6.3,16.5,0,22.8   c3.2,3.2,7.3,4.7,11.4,4.7c4.1,0,8.3-1.6,11.4-4.7l25.3-25.3l22.8-22.8l25.3-25.3C3813.6,1442.5,3813.6,1432.3,3807.3,1426z"/>
	<path class="st2" d="M2407,1110.6c16.8-23,7.6-77.3,4.6-95.1c-1.4-8.1-1.5-8.9-0.2-10.7c0.7-1,1.8-1.6,3-1.8c0.7-0.1,1-0.1,3.7,0.3   c52.8,7,87.4,1.6,94.8-14.9c2.2-4.9,2.6-8.4,1.2-10.4c-6.8-9.1-48.8-3.6-107,4.1l-13.1,1.7c-69.2,9.1-110.6,70.4-125.9,97.8   c12.3,9.3,37.8,31.9,47.9,65.1c12.2-9,28.2-12.2,43.9-15.3C2379,1127.7,2397.1,1124.1,2407,1110.6z"/>
	<path class="st3" d="M2268.1,1081.7c15.3-27.4,56.7-88.7,125.9-97.8l13.1-1.7c58.2-7.7,100.2-13.3,107-4.1c1.5,2,1.1,5.4-1.2,10.4   c-7.4,16.4-41.9,21.8-94.8,14.9c-2.8-0.4-3-0.4-3.7-0.3c-1.2,0.2-2.3,0.8-3,1.8c-1.3,1.8-1.2,2.6,0.2,10.7   c3,17.8,12.3,72.1-4.6,95.1c-9.9,13.6-28,17.1-47.1,20.9c-15.6,3.1-31.7,6.3-43.9,15.3c0.9,3.1,1.7,6.2,2.4,9.4   c10.7-9.6,26.6-12.8,43.2-16.1c20-4,40.6-8.1,52.5-24.4c19-26,9.7-81.1,6.1-101.8c-0.1-0.5-0.2-1-0.3-1.6c15,1.9,31.2,3.1,46.3,2.5   c3.1-0.1,6.1-0.3,9-0.6c21.5-1.9,39.3-8.2,45.7-22.3c3.7-8.2,3.7-14.5,0.2-19.2c-6.1-8.2-22-9.6-49.8-7.2c-2.8,0.2-5.7,0.5-8.8,0.8   c-15.5,1.6-34.3,4.1-56.6,7l-13.1,1.7c-73.3,9.7-116,72.3-132.2,101.5c0.2,0.1,0.5,0.2,0.7,0.3   C2261.8,1077.3,2264.4,1078.9,2268.1,1081.7z"/>
	<path class="st1" d="M1623.9,1288.4c2.4-0.2,4.6,1.5,4.9,3.9c5.6,51.5,8.3,103.5,9,153c39.9,25.8,91.1,46.8,154.2,51   c138.6,9.3,268.1-40.6,519.5-322.9c-1-49.9-45.5-82.7-53.5-88.2c-19,1.9-215.1,24.2-432.5,161.9c-1.1,0.7-2.4,0.9-3.6,0.5   c-1.2-0.4-2.2-1.2-2.8-2.4c-64.2-141.3-217.1-270.4-282.2-321.1l86.5,364.2C1623.6,1288.4,1623.7,1288.4,1623.9,1288.4z"/>
	<path class="st3" d="M1538.9,921.9c-0.6,0.7-1.4,1.1-2.3,1.3l0.3,1.1c65.1,50.6,217.9,179.7,282.2,321.1c0.5,1.2,1.5,2,2.8,2.4   c1.2,0.4,2.5,0.2,3.6-0.5c217.4-137.7,413.5-160.1,432.5-161.9c7.9,5.5,52.5,38.3,53.5,88.2c-251.3,282.3-380.8,332.2-519.5,322.9   c-63.1-4.2-114.3-25.3-154.2-51c0,3.5,0.1,7,0.1,10.5c40.3,25,91.2,45.1,153.5,49.3c10.1,0.7,20.2,1,30.3,1   c130.7,0,261.2-62.5,497.5-328.1c0.7-0.8,1.1-1.8,1.1-2.9c0-6.6-0.7-12.8-1.9-18.8c-0.6-3.2-1.4-6.4-2.4-9.4   c-10.1-33.2-35.6-55.8-47.9-65.1c-3.7-2.8-6.2-4.4-6.7-4.7c-0.2-0.1-0.5-0.2-0.7-0.3c-0.6-0.3-1.3-0.4-2-0.4   c-2,0.2-205.8,17.7-433.7,160.7c-78-166.5-274.7-314.7-308.2-339.1c7.5,5.5,14.8,11.4,21.9,17.7   C1540.4,917.3,1540.5,920,1538.9,921.9z"/>
	<path class="st3" d="M1511.8,894.4c-0.2-0.1-0.4-0.2-0.6-0.3c1.6,1.1,3.2,2.2,4.8,3.4C1513.4,895.6,1512,894.5,1511.8,894.4z"/>
	<path class="st1" d="M677.5,2582.2c-10.5,0-20.8-1.4-30.8-4l-72.2,524c53.9,14.9,110.6,22.9,169.2,22.9   c67.2,0,131.9-10.5,192.6-29.9l125.9-144.1l-328.1-368.9H677.5z"/>
	<path class="st1" d="M1370.6,2582.2H746l322.1,362.2l299.3-342.5C1368.6,2595.5,1369.6,2588.9,1370.6,2582.2z"/>
	<path class="st1" d="M582.4,2536C582.4,2536,582.4,2536,582.4,2536c-17-21.6-26-47.5-26-74.9c0-66.8,54.3-121.1,121.1-121.1   c0.5,0,0.9,0.1,1.4,0.2c71.3,23.5,382.2,27.9,605.3,19.5c-19.9-2.3-39-5.4-57.1-9.3c-76.5-16.7-136.5-48.2-178.8-93.7   c-19.3,0.8-43.7,1.4-70.8,1.4c-11.4,0-23.3-0.1-35.4-0.4c-11.4,0.2-23.7,0.4-36.5,0.4c-125,0-308.4-13.7-323.3-93.3   c-1.5-5.5-32.2-116.9-59.1-266.7c-241,89.5-412.8,321.6-412.8,593.7c0,288,192.3,531.1,455.5,607.9l72.2-524.1   C616.5,2568.3,597.1,2554.7,582.4,2536z"/>
	<path class="st1" d="M1068.2,2957.8l-115.3,131.9c57.2-20,110.7-48,159.1-82.6L1068.2,2957.8z"/>
	<path class="st1" d="M1364.2,2619.1l-290.2,332l45.1,50.7C1243,2910.6,1332.4,2775.3,1364.2,2619.1z"/>
	<path class="st1" d="M497.2,3598.8l43.2-313.7c-45.6-45.7-108.6-74-178.2-74c-139,0-251.7,112.7-251.7,251.7   c0,51.9,15.7,100,42.6,140.1h346C497.7,3602,497,3600.5,497.2,3598.8z"/>
	<path class="st1" d="M548.8,3289l-40.9,296.4l220.2-252c-34.1-31.6-79.7-51-129.9-51C581.1,3282.5,564.6,3284.8,548.8,3289z"/>
	<path class="st1" d="M734.5,3339.6l-229.6,262.7c-0.2,0.2-0.4,0.5-0.7,0.6h234.5c31.4-34,50.6-79.5,50.6-129.4   C789.3,3421.4,768.4,3374.1,734.5,3339.6z"/>
	<polygon points="1396.4,2582.2 1384.7,2582.2 1367.4,2602 1068.1,2944.5 1074,2951.1 1364.2,2619.1  "/>
	<path d="M499,3603h5.1c0.3-0.2,0.5-0.4,0.7-0.6l229.6-262.7l218.4-249.9l115.3-131.9l-5.9-6.6l-125.9,144.1l-208.2,238.2   l-220.2,252l40.9-296.4l25.7-186.8l72.2-524c-2.9-0.8-5.7-1.6-8.5-2.5L566,3099.8l-25.6,185.3l-43.2,313.7   C497,3600.5,497.7,3602,499,3603z"/>
	<path d="M1542.5,2808.3l-32.2-226.1c-1,0-2.1,0.1-3.1,0.1h-5.8l35.3,248C1538.6,2822.9,1540.5,2815.5,1542.5,2808.3z"/>
	<path d="M1641.9,3603h5.9c-2.6-0.6-5.1-1.3-7.6-2L1641.9,3603z"/>
	<path d="M1458.5,3396.7c0.6-3.6,1.3-7.3,2-11l-341.4-383.9l-45.1-50.7l-5.9-6.6L746,2582.2h-11.8l328.1,368.9l5.9,6.6l43.8,49.3   L1458.5,3396.7z"/>
	<path class="st2" d="M1534.1,2352.2c-21.3,3.1-43.4,5.8-65.9,7.8c-35.9,3.3-70.2,4.8-102.7,4.6c-73.9,4.4-168.3,7.4-269.8,8   c-164.4,1-360.4-4.7-419-23.6c-61.6,0.4-111.6,50.6-111.6,112.3c0,24.7,7.9,48.1,22.8,67.8h1008.6c14.9-19.6,22.8-43,22.8-67.8   C1619.4,2408.5,1583.1,2364.3,1534.1,2352.2z"/>
	<path class="st3" d="M1553.4,2349.3c-6.4,1-12.8,2-19.3,2.9c48.9,12.1,85.3,56.4,85.3,109c0,24.7-7.9,48.1-22.8,67.8h2.2   c1.7,0,3.2,1,4,2.5c0.7,1.5,0.5,3.3-0.5,4.6c17-21.6,26-47.5,26-74.9C1628.3,2410.8,1597.3,2367.5,1553.4,2349.3z"/>
	<path class="st3" d="M581.9,2531.4c0.7-1.5,2.3-2.5,4-2.5h2.2c-14.9-19.6-22.8-43-22.8-67.8c0-61.7,50-111.9,111.6-112.3   c58.6,18.9,254.6,24.6,419,23.6c101.5-0.6,195.8-3.5,269.8-8c-28.5-0.2-55.7-1.8-81.4-4.8c-223.1,8.4-534,4-605.3-19.5   c-0.4-0.1-0.9-0.2-1.4-0.2c-66.8,0-121.1,54.3-121.1,121.1c0,27.4,9,53.3,26,74.9c0,0,0,0,0,0c0,0,0,0,0,0   C581.4,2534.7,581.2,2532.9,581.9,2531.4z"/>
	<path d="M677.5,2573.4h829.6c31.4,0,60.9-12.9,82.1-35.7H595.4C616.7,2560.5,646.1,2573.4,677.5,2573.4z"/>
	<path d="M734.2,2582.2H746h624.6h14.2h11.7h105h5.8c1,0,2.1-0.1,3.1-0.1c36.1-0.9,69.5-17.6,92-46.1c1-1.3,1.2-3.1,0.5-4.6   c-0.7-1.5-2.3-2.5-4-2.5h-2.2H588h-2.2c-1.7,0-3.2,1-4,2.5c-0.7,1.5-0.5,3.3,0.5,4.6c0,0,0,0,0,0c14.7,18.7,34.1,32.2,55.8,39.7   c2.8,1,5.7,1.8,8.5,2.5c9.9,2.6,20.2,4,30.8,4H734.2z M595.4,2537.7h993.8c-21.2,22.8-50.6,35.7-82.1,35.7H677.5   C646.1,2573.4,616.7,2560.5,595.4,2537.7z"/>
	<path d="M654.3,2164.9c-2-7.2-54.7-198.8-82.7-419.8c-16.7-131.7-21.4-247.9-14.1-345.5c9.2-122.4,37.5-215.7,84.2-277.2   c31.7-41.7,72.1-69.3,120.6-82.4c-0.5,0-1.1,0-1.6,0c-77.9,0-139.8,29.5-184,87.7c-103.7,136.6-94.4,410.5-68.3,616.1   c28.3,223.4,82,416.9,82.5,418.8c0,0.1,0.1,0.3,0.1,0.4c9.6,52.4,104.2,73.9,202.1,81.8C721.1,2232.3,662.4,2208.5,654.3,2164.9z"/>
	<path d="M905.6,2258.2c12.9,0,25.1-0.1,36.5-0.4c-48.3-1.1-101.6-4.5-149.1-12.9c-97.9-8-192.5-29.4-202.1-81.8   c0-0.1-0.1-0.3-0.1-0.4c-0.5-1.9-54.2-195.4-82.5-418.8c-26-205.7-35.3-479.5,68.3-616.1c44.2-58.2,106-87.7,184-87.7   c0.5,0,1.1,0,1.6,0c11.2-3,22.7-5.2,34.7-6.7c-12-1.4-24.2-2.1-36.3-2.1c-80.8,0-145.1,30.7-191,91.2   c-46.7,61.6-75,154.8-84.2,277.2c-7.3,97.5-2.5,213.7,14.1,345.5c6.8,53.5,15,105.2,23.6,153c26.9,149.8,57.6,261.3,59.1,266.7   C597.2,2244.5,780.7,2258.2,905.6,2258.2z"/>
	<path class="st2" d="M1034.2,2240.3c-62-79.5-92.4-171.5-87.7-266.1c3.4-69.3,25.5-138.7,64.5-203.9c0.1-0.1,0.1-0.2,0.2-0.3   l0.4-0.6c4.7-7.8,9.6-15.5,14.8-23.2c0-0.1-0.1-0.1-0.1-0.2c-17.8-34-31-69.1-40.4-104.9c-86.1-15.4-155-40.2-177.8-79.2   c-16.4-28.1-16.7-72.4-0.8-131.8c27.4-102.4,101.2-238.6,178.4-350.6c-49.5-26.3-100.6-39.5-153-39.5c-77.9,0-139.8,29.5-184,87.7   c-103.7,136.6-94.4,410.5-68.3,616.1c28.3,223.4,82,416.9,82.5,418.8c0,0.1,0.1,0.3,0.1,0.4c16,87.3,267.3,88.7,377.7,85   C1038.5,2245.5,1036.3,2242.9,1034.2,2240.3z"/>
	<path class="st3" d="M762.2,1040.1c-48.5,13.1-88.9,40.6-120.6,82.4c-46.7,61.6-75,154.8-84.2,277.2   c-7.3,97.5-2.5,213.7,14.1,345.5c28,220.9,80.7,412.6,82.7,419.8c8.1,43.6,66.8,67.4,138.7,80c47.5,8.4,100.8,11.8,149.1,12.9   c12.2,0.3,24,0.4,35.4,0.4c27.1,0,51.5-0.6,70.8-1.4c-2.6-2.8-5.2-5.7-7.7-8.7c-110.4,3.7-361.7,2.3-377.7-85   c0-0.1-0.1-0.3-0.1-0.4c-0.5-1.9-54.2-195.4-82.5-418.8c-26-205.7-35.3-479.5,68.3-616.1c44.2-58.2,106-87.7,184-87.7   c52.3,0,103.4,13.3,153,39.5c1.7-2.4,3.4-4.9,5.1-7.3c-51.1-27.3-103.9-41.1-158-41.1c-12.3,0-24.1,0.7-35.6,2.1   C785,1034.9,773.4,1037.1,762.2,1040.1z"/>
	<path d="M3832.2,3531c2.9-4.9,5.8-9.9,9.1-15.3c23.6-38,14-80.4,0.1-111.4c-17.2,3.2-35.2,3.3-53.3-0.1   c12.2,24.4,29.3,71.4,11.7,118.5c-15.1,40.3-47.8,65.6-104.1,78.4C3794.9,3594.4,3809.2,3570.2,3832.2,3531z"/>
	<path d="M3111.6,3230.7c1.5,0,2.9-0.1,4.3-0.1c59.9,0,115.4,18.8,161,50.9c1.6-6.1,3.5-12.1,5.8-18c10.8-28,28.5-51.1,50.1-66.7   c-25.6-6.4-47.8-10.9-64.9-12.9C3189.9,3175,3139.1,3205.6,3111.6,3230.7z"/>
	<path d="M3111.6,3230.7c27.6-25.1,78.3-55.7,156.4-46.8c17.1,2,39.3,6.5,64.9,12.9c3.3-2.3,6.6-4.5,10.1-6.5   c-29.4-7.6-54.8-12.9-74-15.1c-88.7-10.2-143.7,28.8-170.6,56C3102.8,3230.9,3107.2,3230.8,3111.6,3230.7z"/>
	<path d="M3841.4,3404.3c13.9,31,23.4,73.4-0.1,111.4c-3.3,5.3-6.3,10.4-9.1,15.3c-23,39.2-37.3,63.5-136.5,70.1   c-21.9,5-47.4,8-76.9,9.3c6,0.9,11.8,1.4,17.2,1.4c159.3-0.6,176.1-29.1,203.8-76.3c2.8-4.8,5.8-9.9,9-15.1   c25.1-40.5,15.6-85.1,1.3-118C3847.3,3403.1,3844.4,3403.7,3841.4,3404.3z"/>
	<path class="st2" d="M3390.2,3450.8c3.6-3.7,7.3-7.4,11-11.1c0.4-0.7,1-1.3,1.7-1.6c25.1-24.6,52.1-47.5,79-68.2   c17-48.7-27.3-108.9-27.8-109.5c-1.5-1.9-1.1-4.7,0.9-6.2c2-1.5,4.7-1.1,6.2,0.9c1.8,2.4,41.2,56,32.1,106.1   c19-14.2,37.7-27.4,55.6-39.3c0.1-0.1,0.1-0.1,0.2-0.1c1.3-0.9,2.6-1.8,3.9-2.6c27.6-18.2,54.6-34.6,79.4-48.8   c20.5-55.4,1.2-99.8,1-100.3c-1-2.2,0-4.8,2.2-5.8c2.2-1,4.8,0,5.8,2.2c0.8,1.8,18.8,43.2,2.4,97.3c63.4-35.7,110-56.4,110.6-56.7   c2.2-1,4.8,0,5.8,2.3c1,2.2,0,4.8-2.3,5.8c-0.2,0.1-5.4,2.4-14.5,6.7L3617.7,3328c34.8,7.7,73.4,23.9,89.9,58   c1.1,2.2,0.1,4.8-2.1,5.9c-0.6,0.3-1.3,0.4-1.9,0.4c-1.6,0-3.2-0.9-4-2.5c-15.9-32.9-56.1-47.8-90.7-54.5l-125.3,105.6   c41.1,7.9,88.9,27.6,118.8,74.8c1.3,2.1,0.7,4.8-1.4,6.1c-0.7,0.5-1.6,0.7-2.4,0.7c-1.5,0-2.9-0.7-3.7-2   c-30.1-47.4-79.3-65.6-120.1-72.2l-78.3,66c-0.3,30.2-5.4,59.7-15,88h197.2c127.3,0.8,190.8-24,212.7-82.7   c18.7-50-4.7-100.3-15.6-119.6c-0.9-1.5-0.7-3.4,0.3-4.8c1.1-1.4,2.9-2,4.6-1.6c38.1,9.7,76.9,3.1,106.5-17.9   c21.5-15.3,35.4-36.9,37.2-57.8c3.1-35.4-26.7-74.6-70.9-93c-1.2-0.5-2.1-1.5-2.5-2.7c-0.4-1.2-0.2-2.6,0.4-3.7   c31.6-51.4,23.9-109.5-2.9-129.4c-13-9.7-33.7-12.6-55.5-7.8c-34.3,7.6-64.6,31.7-83.3,66.1c-0.8,1.5-2.3,2.5-4,2.3   c-1.7,0-3.2-1-3.9-2.5c-22.2-47-73.7-72.7-122.3-61.3c-54.1,12.8-90.1,69.4-80.2,126.3c0.3,1.8-0.5,3.6-2,4.5   c-1.5,0.9-3.5,0.9-4.9-0.2c-2.7-2-68-49.8-131.1-25.3c-35.8,13.9-65.5,50-76.9,96.1C3337.3,3326.8,3375.5,3384.4,3390.2,3450.8z"/>
	<path class="st3" d="M3861.7,3218.8c31.5-55.1,21.9-114.7-7.7-136.8c-15.2-11.4-38.1-14.8-62.6-9.4c-34.4,7.6-65,30.5-85,63.4   c-25.7-46-78.5-70.6-128.6-58.7c-55.4,13.1-93.3,68.5-88.2,126.4c-21-13.4-75.9-42.3-131.2-20.8c-5.3,2.1-10.5,4.6-15.4,7.5   c-3.5,2-6.8,4.1-10.1,6.5c-21.7,15.5-39.3,38.7-50.1,66.7c-2.3,5.9-4.2,11.9-5.8,18c2.6,1.8,5.2,3.7,7.8,5.7   c11.4-46.1,41.1-82.2,76.9-96.1c63.1-24.5,128.3,23.2,131.1,25.3c1.4,1.1,3.4,1.2,4.9,0.2c1.5-0.9,2.3-2.7,2-4.5   c-9.9-56.8,26.1-113.5,80.2-126.3c48.6-11.5,100.1,14.3,122.3,61.3c0.7,1.5,2.2,2.5,3.9,2.5c1.7,0.2,3.2-0.8,4-2.3   c18.6-34.4,49-58.5,83.3-66.1c21.7-4.8,42.5-1.9,55.5,7.8c26.7,19.9,34.5,78,2.9,129.4c-0.7,1.1-0.8,2.4-0.4,3.7   c0.4,1.2,1.3,2.2,2.5,2.7c44.2,18.5,74,57.6,70.9,93c-1.8,20.9-15.7,42.5-37.2,57.8c-29.6,21-68.4,27.6-106.5,17.9   c-1.7-0.4-3.5,0.2-4.6,1.6c-1.1,1.4-1.2,3.3-0.3,4.8c10.9,19.3,34.3,69.6,15.6,119.6c-21.9,58.7-85.4,83.5-212.7,82.7h-197.2   c-0.8,2.2-1.5,4.4-2.3,6.6c-0.4,1-1.1,1.7-1.9,2.2h201.3c1.8,0,3.6,0,5.4,0c12.1,0,23.6-0.2,34.6-0.7c29.5-1.3,55-4.4,76.9-9.3   c56.3-12.7,89.1-38.1,104.1-78.4c17.6-47.2,0.5-94.1-11.7-118.5c18.1,3.4,36.1,3.4,53.3,0.1c2.9-0.6,5.8-1.2,8.7-1.9   c15.2-3.9,29.6-10.5,42.3-19.6c23.9-17,38.8-40.4,40.9-64.2C3936.7,3280.8,3906.8,3239.4,3861.7,3218.8z"/>
	<path class="st2" d="M3552.9,3329.9c-43.5,29-92.1,65.3-135.7,106.6c14.2-0.8,38.9-0.9,66.6,4.4l125.3-105.6   C3582,3330.1,3558.5,3329.8,3552.9,3329.9z"/>
	<path class="st2" d="M3475.1,3448.3c-33.3-5.4-61-2.9-67.8-2.1c-5.1,5-10,10-14.9,15.2c2.9,16.3,4.5,33,4.5,50.2   c0,1-0.1,1.9-0.1,2.8L3475.1,3448.3z"/>
	<path class="st2" d="M3565.8,3321.3c12.4,0.5,31.5,2.1,51.9,6.7l125.8-106.1C3714,3235.9,3642.8,3271.2,3565.8,3321.3z"/>
	<path class="st3" d="M3565.8,3321.3c77-50.1,148.1-85.4,177.7-99.4c9.1-4.3,14.3-6.6,14.5-6.7c2.2-1,3.2-3.6,2.3-5.8   c-1-2.2-3.6-3.2-5.8-2.3c-0.7,0.3-47.3,21-110.6,56.7c-1.1,3.6-2.4,7.3-3.8,11.1c-0.7,1.8-2.3,2.8-4.1,2.8c-0.5,0-1-0.1-1.6-0.3   c-2.3-0.9-3.4-3.4-2.6-5.7c0.2-0.5,0.3-0.9,0.5-1.4c-24.8,14.3-51.8,30.6-79.4,48.8c-1.3,0.9-2.6,1.8-3.9,2.6   c0.7-0.4,1.4-0.7,2.3-0.7C3552.4,3321.1,3557.7,3321,3565.8,3321.3z"/>
	<path class="st3" d="M3417.1,3436.5c43.6-41.4,92.2-77.6,135.7-106.6c-0.8,0-1.2,0-1.3,0c-2.5,0-4.5-1.9-4.5-4.3   c0-1.5,0.7-2.8,1.8-3.6c-17.9,11.9-36.7,25.1-55.6,39.3c-0.8,4.3-1.9,8.5-3.4,12.7c-0.7,1.8-2.3,2.9-4.1,2.9c-0.5,0-1-0.1-1.5-0.3   c-2.3-0.8-3.5-3.4-2.6-5.7c0.1-0.3,0.2-0.7,0.3-1c-26.9,20.8-53.9,43.6-79,68.2c0.4-0.2,0.9-0.4,1.5-0.5   C3404.6,3437.6,3409.3,3436.9,3417.1,3436.5z"/>
	<path class="st3" d="M3407.2,3446.1c-1,0.1-1.6,0.2-1.6,0.2c-2.4,0.3-4.6-1.3-5-3.7c-0.1-1,0.1-2,0.6-2.8c-3.7,3.7-7.4,7.4-11,11.1   c0.8,3.5,1.5,6.9,2.1,10.5C3397.2,3456.2,3402.1,3451.1,3407.2,3446.1z"/>
	<path class="st1" d="M3069.1,2323.6c1.4-2,4.1-2.6,6.1-1.2c2,1.4,2.5,4.1,1.2,6.1c-1.1,1.7-114.5,170.3-224.2,386.3   c-19.2,37.8-39,78.5-58.5,121.2c105.6-72.2,697.9-489.7,493.9-638c-395.2-287.3-509.7,648.7-509.7,648.7s0.7-0.4,1.9-1.3   c21.4-47.6,43.4-92.9,64.6-134.7C2954.4,2494.2,3068,2325.2,3069.1,2323.6z"/>
	<path class="st1" d="M3393.5,2683.2c2.3-0.8,4.8,0.4,5.6,2.7c0.8,2.3-0.4,4.8-2.7,5.6c-1.3,0.5-131.9,46.5-268.3,154.2   c-31.1,24.6-64,53.7-96.5,87.6c-6.2,10.9-9.5,17.1-9.5,17.1s708.9-222.6,487.5-361.2c-178.5-111.8-386,191.5-459.7,313.2   c22.9-22.1,47.3-43.4,73.1-63.7C3260.4,2730.1,3392.2,2683.6,3393.5,2683.2z"/>
	<path class="st1" d="M3739,2905.9c2.4,0.3,4.1,2.5,3.8,4.9c-0.3,2.4-2.5,4.1-4.9,3.8c-1.7-0.2-174.6-20.6-354.6,26   c-56.7,14.7-118.1,37.2-175.9,71.8c79.8,7.6,719.2,62.7,692.3-136.9c-40.9-303.3-534.8,19.7-667.7,112.7   c44.7-23.2,94.6-42,149.3-56.2C3562.9,2885.2,3737.3,2905.7,3739,2905.9z"/>
	<path d="M2793.7,2835.9c19.5-42.6,39.3-83.4,58.5-121.2c109.7-216,223.1-384.6,224.2-386.3c1.4-2,0.8-4.8-1.2-6.1   c-2-1.4-4.8-0.8-6.1,1.2c-1.1,1.7-114.7,170.6-224.7,387.1c-21.2,41.8-43.2,87.1-64.6,134.7c-46.5,103.3-90.4,216.9-118.1,326.6   c3.3-1.4,6.7-2.8,10.1-4C2700.5,3056.1,2746,2940.3,2793.7,2835.9z"/>
	<path d="M3031.6,2933.3c32.5-33.9,65.4-63,96.5-87.6c136.3-107.7,267-153.8,268.3-154.2c2.3-0.8,3.5-3.3,2.7-5.6   c-0.8-2.3-3.3-3.5-5.6-2.7c-1.3,0.5-133.1,46.9-270.6,155.5c-25.8,20.4-50.2,41.6-73.1,63.7c-48.8,47.1-91,97.8-125.9,151.7   c-22.1,34.1-41.2,69.5-57.4,106.1c2.9,0.9,5.8,1.7,8.7,2.7C2916.7,3070.1,2973.4,2994,3031.6,2933.3z"/>
	<path d="M3207.4,3012.5c57.8-34.6,119.2-57.2,175.9-71.8c180-46.6,352.9-26.2,354.6-26c2.4,0.3,4.6-1.4,4.9-3.8   c0.3-2.4-1.4-4.6-3.8-4.9c-1.7-0.2-176.1-20.8-357.7,26.2c-54.7,14.1-104.6,32.9-149.3,56.2c-42.7,22.1-80.7,48.3-113.7,78.4   c-52.5,47.9-92.5,105.7-119.5,172.8c2.3,2.4,4.6,4.8,6.8,7.2C3049.5,3136,3124.8,3062,3207.4,3012.5z"/>
	<path class="st1" d="M2456.9,3436.2c-1.7-5.1-5.9-8.7-12.7-11c-6.8-2.2-11.8-1.1-16.1,2.4c9.7,3.5,19.5,7,29.3,10.7   C2457.3,3437.5,2457.1,3436.8,2456.9,3436.2z"/>
	<path class="st1" d="M2337.8,3376c2-1.3,4.8-0.8,6.1,1.3c1.3,2,0.8,4.8-1.3,6.1c-4.1,2.7-8.8,6.2-13.5,10   c9.6,3.2,20.4,6.9,32.1,10.9c7.1-10,15-17.6,26.6-12.8c4.4,1.8,7.4,4.7,8.9,8.5c1.9,4.8,1.1,10.4-0.8,16.3c7.5,2.6,15.2,5.3,23,8.1   c6.5-7.2,15.1-11.7,28.1-7.5c9.6,3.1,15.8,8.7,18.4,16.6c0.9,2.6,1.2,5.4,1.3,8.2c17.5,6.5,34.8,13.1,51.4,19.7   c58,23.1,78.7,65.3,85.8,96.8c4.5,20,4,36.8,3.3,44.9h552.5h212.7c10.5-29.3,15.8-60.1,15.8-91.5c0-150-122-272-272.1-272   c-36.6,0-72.1,7.1-105.6,21.2c-1.8,0.7-3.8,0.3-5-1.2c-56.4-65.3-138.2-102.7-224.4-102.7c-121.6,0-229.6,72.9-275.1,185.6   c-0.9,2.2-3.4,3.3-5.6,2.5c-19.5-7.1-39.9-10.7-60.8-10.7c-49.7,0-94.7,20.6-126.9,53.6c2.2,0.7,4.5,1.5,6.9,2.3   C2327.9,3382.6,2335.9,3377.2,2337.8,3376z"/>
	<path class="st1" d="M2388.5,3403.1c-0.4-1-1.2-2.4-4-3.6c-5.1-2.1-9.2,0.7-14.5,7.7c5.7,2,11.6,4,17.6,6.1   C2388.8,3409.2,2389.4,3405.5,2388.5,3403.1z"/>
	<path class="st3" d="M3379.4,3608.9c0.8-2.2,1.5-4.4,2.3-6.6c9.7-28.3,14.7-57.8,15-88c0-1,0.1-1.9,0.1-2.8   c0-17.1-1.5-33.9-4.5-50.2c-0.6-3.5-1.4-7-2.1-10.5c-14.7-66.4-52.9-124-105.4-163.7c-2.6-1.9-5.2-3.8-7.8-5.7   c-45.6-32-101.2-50.9-161-50.9c-1.5,0-2.9,0.1-4.3,0.1c-4.4,0.1-8.8,0.2-13.2,0.5c-30.5,1.9-60.2,8.6-88.5,20.1   c-1.4-1.6-2.8-3.1-4.2-4.7c-2.2-2.4-4.5-4.9-6.8-7.2c-34.7-35.4-77.2-61.5-123.6-76.6c-2.9-0.9-5.8-1.8-8.7-2.7   c-27.5-8-56.3-12.3-85.6-12.3c-38.1,0-75,7-109.1,20c-3.4,1.3-6.7,2.6-10.1,4c-72,30.4-130.9,87.9-162.5,163.3   c-19.2-6.5-39.3-9.8-59.9-9.8c-53.7,0-102.1,22.9-136.1,59.4c2.8,0.9,5.9,1.9,9.3,3.1c32.2-33,77.2-53.6,126.9-53.6   c20.9,0,41.4,3.6,60.8,10.7c2.2,0.8,4.7-0.3,5.6-2.5c45.5-112.8,153.5-185.6,275.1-185.6c86.2,0,168,37.4,224.4,102.7   c1.2,1.4,3.3,1.9,5,1.2c33.5-14.1,69-21.2,105.6-21.2c150,0,272.1,122,272.1,272c0,31.4-5.3,62.2-15.8,91.5h-212.7   c2.4,0,4.4,2,4.4,4.4c0,2.4-2,4.4-4.4,4.4h215.8c0.8,0,1.6-0.3,2.2-0.6C3378.4,3610.6,3379,3609.9,3379.4,3608.9z"/>
	<path d="M2595.8,3563.5c-2.4,0-4.9,0-7.3,0c-2.5,0-5.1,0-7.6,0c-2.4,0-4.8,0-7.2-0.1c-3.1,0-6.2,0-9.3-0.1c-1.7,0-3.3-0.1-5-0.1   c-9-0.2-17.9-0.4-26.7-0.6c-26.8-0.7-54.5-1.5-82.3-0.2c-22.3,1.3-45,3.7-69.1,6.2c-13.5,1.4-27.2,2.8-40.8,4.1   c-0.2,0-0.4,0-0.7,0.1c-4.3,0.4-8.5,0.7-12.8,1.1c-0.4,0-0.8,0.1-1.2,0.1c-4.1,0.3-8.3,0.6-12.4,0.9c-0.5,0-1,0.1-1.5,0.1   c-4.1,0.3-8.1,0.5-12.1,0.7c-0.6,0-1.1,0.1-1.7,0.1c-4,0.2-8,0.3-12,0.4c-0.6,0-1.2,0-1.8,0c-4,0.1-7.9,0.1-11.9,0.2   c-0.3,0-0.6,0-0.9,0c-0.6,0-1.1,0-1.7,0c-1.5,0-3,0-4.5,0c-1.1,0-2.1,0-3.2,0c-1.5,0-3-0.1-4.4-0.1c-1.1,0-2.1-0.1-3.2-0.1   c-1.6-0.1-3.1-0.1-4.7-0.2c-0.9,0-1.9-0.1-2.8-0.1c-2.4-0.1-4.8-0.3-7.2-0.5c-0.8-0.1-1.6-0.1-2.4-0.2c-1.6-0.1-3.3-0.3-4.9-0.4   c-1.1-0.1-2.1-0.2-3.2-0.3c-1.4-0.1-2.8-0.3-4.2-0.5c-1.1-0.1-2.2-0.3-3.3-0.4c-1.3-0.2-2.7-0.3-4-0.5c-1.1-0.2-2.2-0.3-3.4-0.5   c-1.3-0.2-2.6-0.4-3.9-0.6c-1.1-0.2-2.2-0.4-3.3-0.6c-1.4-0.2-2.7-0.5-4-0.8c-1-0.2-2.1-0.4-3.1-0.6c-1.6-0.3-3.1-0.7-4.6-1   c-0.8-0.2-1.6-0.4-2.5-0.6c-2.3-0.5-4.6-1.1-6.9-1.7c-0.8-0.2-1.6-0.4-2.4-0.7c-1.5-0.4-3.1-0.9-4.6-1.3c-0.9-0.3-1.9-0.6-2.8-0.9   c-1.4-0.4-2.8-0.9-4.1-1.3c-1-0.3-1.9-0.7-2.9-1c-1.3-0.5-2.7-1-4-1.5c-1-0.4-1.9-0.7-2.8-1.1c-0.5-0.2-1.1-0.4-1.6-0.6   c10.1,16.5,32.8,39.7,81.8,44.9h44.8h310.6C2598.7,3596.3,2599.4,3581.3,2595.8,3563.5z"/>
	<path d="M2242.2,3611.8c27.1,2.8,76.1,3.7,129.4,3.7c105,0,226.6-3.6,230.4-3.7h-317H2242.2z"/>
	<path d="M2603.7,3558.1c0.3,1.3,0,2.6-0.8,3.7c-0.8,1-2.1,1.7-3.4,1.7c-3.7,0.1-7.3,0.1-11,0.1c2.4,0,4.9,0,7.3,0   c3.5,17.8,2.9,32.8,2.3,39.4h8.9C2607.7,3594.9,2608.2,3578.1,2603.7,3558.1z"/>
	<path d="M2160.9,3558.1c0.5,0.2,1.1,0.4,1.6,0.6c-4.4-1.7-8.7-3.5-12.9-5.5c-1-0.5-1.8-1.3-2.2-2.3c5,12.4,19.5,38,56.4,52.1h38.9   C2193.7,3597.8,2171,3574.6,2160.9,3558.1z"/>
	<path d="M2250,3575.8c1.6,0.1,3.1,0.1,4.7,0.2C2253.2,3576,2251.6,3575.9,2250,3575.8z"/>
	<path d="M2165.4,3559.8c1.3,0.5,2.7,1,4,1.5C2168,3560.8,2166.7,3560.3,2165.4,3559.8z"/>
	<path d="M2225.3,3573.8c1.4,0.2,2.8,0.3,4.2,0.5C2228,3574.1,2226.7,3574,2225.3,3573.8z"/>
	<path d="M2218,3572.8c1.3,0.2,2.6,0.4,4,0.5C2220.6,3573.2,2219.3,3573,2218,3572.8z"/>
	<path d="M2172.3,3562.2c1.4,0.5,2.7,0.9,4.1,1.3C2175,3563.1,2173.7,3562.7,2172.3,3562.2z"/>
	<path d="M2232.6,3574.6c1.6,0.2,3.3,0.3,4.9,0.4C2235.9,3574.9,2234.2,3574.7,2232.6,3574.6z"/>
	<path d="M2257.9,3576.1c1.5,0,2.9,0.1,4.4,0.1C2260.8,3576.2,2259.3,3576.2,2257.9,3576.1z"/>
	<path d="M2240,3575.2c2.4,0.2,4.8,0.3,7.2,0.5C2244.8,3575.6,2242.4,3575.4,2240,3575.2z"/>
	<path d="M2186.2,3566.5c2.3,0.6,4.6,1.2,6.9,1.7C2190.8,3567.6,2188.5,3567.1,2186.2,3566.5z"/>
	<path d="M2195.5,3568.7c1.5,0.4,3.1,0.7,4.6,1C2198.6,3569.4,2197.1,3569.1,2195.5,3568.7z"/>
	<path d="M2203.3,3570.4c1.3,0.3,2.7,0.5,4,0.8C2206,3570.9,2204.6,3570.6,2203.3,3570.4z"/>
	<path d="M2210.7,3571.7c1.3,0.2,2.6,0.4,3.9,0.6C2213.3,3572.1,2212,3571.9,2210.7,3571.7z"/>
	<path d="M2179.2,3564.5c1.5,0.5,3.1,0.9,4.6,1.3C2182.3,3565.4,2180.8,3564.9,2179.2,3564.5z"/>
	<path d="M2299.9,3575.6c4-0.2,8.1-0.4,12.1-0.7C2308,3575.2,2303.9,3575.4,2299.9,3575.6z"/>
	<path d="M2313.5,3574.8c4.1-0.3,8.3-0.6,12.4-0.9C2321.8,3574.3,2317.7,3574.6,2313.5,3574.8z"/>
	<path d="M2450.5,3562.4c27.7-1.3,55.5-0.5,82.3,0.2C2505.9,3562,2478.2,3561.2,2450.5,3562.4c-22.3,1.3-45,3.7-69.1,6.2   c-13.5,1.4-27.2,2.8-40.8,4.1c13.6-1.2,27.2-2.7,40.8-4.1C2405.5,3566.1,2428.2,3563.7,2450.5,3562.4z"/>
	<path d="M2559.4,3563.3c1.7,0,3.3,0.1,5,0.1C2562.7,3563.4,2561,3563.4,2559.4,3563.3z"/>
	<path d="M2580.9,3563.6c-2.4,0-4.8,0-7.2-0.1C2576.1,3563.6,2578.5,3563.6,2580.9,3563.6z"/>
	<path d="M2284.4,3576.2c-4,0.1-7.9,0.1-11.9,0.2C2276.5,3576.3,2280.4,3576.3,2284.4,3576.2z"/>
	<path d="M2286.2,3576.1c4-0.1,8-0.3,12-0.4C2294.2,3575.9,2290.2,3576,2286.2,3576.1z"/>
	<path d="M2327.1,3573.9c4.3-0.3,8.5-0.7,12.8-1.1C2335.7,3573.2,2331.4,3573.5,2327.1,3573.9z"/>
	<path d="M2270,3576.3c-1.5,0-3,0-4.5,0C2267,3576.3,2268.5,3576.3,2270,3576.3z"/>
	<path d="M2121.9,3321.7c1.4,0.1,2.9,0.2,4.3,0.3c1.7,0.1,3.5,0.1,5.2,0.1c1.4,0,2.8,0,4.2,0c1.8,0,3.5-0.1,5.2-0.2   c1.3-0.1,2.7-0.1,4-0.2c1.8-0.1,3.5-0.3,5.3-0.5c1.3-0.1,2.6-0.3,3.8-0.4c1.8-0.2,3.6-0.6,5.4-0.9c1.2-0.2,2.4-0.4,3.6-0.6   c1.9-0.4,3.7-0.8,5.5-1.2c1.1-0.3,2.3-0.5,3.4-0.8c1.9-0.5,3.8-1.1,5.8-1.7c1-0.3,2-0.6,3-0.9c2.1-0.7,4.1-1.5,6.2-2.2   c0.8-0.3,1.7-0.6,2.5-0.9c2.4-0.9,4.8-2,7.1-3.1c0.5-0.2,1-0.4,1.5-0.7c5.7-2.7,11.4-5.8,17.1-9.2c0.6-0.4,1.2-0.8,1.8-1.1   c2.2-1.4,4.4-2.8,6.6-4.3c1-0.7,1.9-1.4,2.9-2.1c1.8-1.3,3.6-2.6,5.4-3.9c1.1-0.8,2.2-1.7,3.3-2.6c1.6-1.3,3.3-2.6,4.9-3.9   c1.2-1,2.3-2,3.5-3c1.5-1.3,3.1-2.7,4.6-4.1c1.2-1.1,2.4-2.3,3.6-3.4c1.2-1.1,2.4-2.3,3.6-3.4l-4.8-24.1   c-24.9,14.5-72.8,38.8-114.8,38.8c-8.2,0-16.2-0.9-23.7-3l6.9,43.1C2119.7,3321.5,2120.8,3321.6,2121.9,3321.7z"/>
	<path d="M2111.5,3322.4c0.9-1,2.3-1.5,3.7-1.3c1.1,0.1,2.2,0.2,3.3,0.3l-6.9-43.1c-3.2-0.9-6.4-2.1-9.5-3.4l8.2,51.3   C2110.2,3324.8,2110.6,3323.4,2111.5,3322.4z"/>
	<path d="M2250.2,3242.5l4.8,24.1c0.6-0.5,1.1-1.1,1.7-1.6c1.1-1.2,2.8-1.6,4.4-1.1c1.6,0.5,2.7,1.8,3,3.4l-5.9-29.6   C2255.9,3239.1,2253.3,3240.8,2250.2,3242.5z"/>
	<path d="M2251.5,3270.1c-1.2,1.1-2.4,2.3-3.6,3.4C2249.1,3272.4,2250.3,3271.3,2251.5,3270.1z"/>
	<path d="M2216.8,3297.4c-0.6,0.4-1.2,0.8-1.8,1.1C2215.6,3298.2,2216.2,3297.8,2216.8,3297.4z"/>
	<path d="M2198,3307.8c-0.5,0.2-1,0.4-1.5,0.7C2197,3308.2,2197.5,3308,2198,3307.8z"/>
	<path d="M2243.3,3277.6c-1.2,1-2.3,2.1-3.5,3C2240.9,3279.7,2242.1,3278.6,2243.3,3277.6z"/>
	<path d="M2226.2,3291.1c-1,0.7-1.9,1.4-2.9,2.1C2224.3,3292.5,2225.3,3291.8,2226.2,3291.1z"/>
	<path d="M2234.9,3284.6c-1.1,0.9-2.2,1.8-3.3,2.6C2232.7,3286.4,2233.8,3285.4,2234.9,3284.6z"/>
	<path d="M2189.4,3311.5c-0.8,0.3-1.7,0.6-2.5,0.9C2187.7,3312.1,2188.5,3311.8,2189.4,3311.5z"/>
	<path d="M2126.2,3322c-1.4-0.1-2.9-0.2-4.3-0.3C2123.4,3321.8,2124.8,3321.9,2126.2,3322z"/>
	<path d="M2144.8,3321.7c-1.3,0.1-2.7,0.1-4,0.2C2142.2,3321.9,2143.5,3321.8,2144.8,3321.7z"/>
	<path d="M2162.9,3319.3c-1.2,0.2-2.4,0.4-3.6,0.6C2160.5,3319.7,2161.7,3319.5,2162.9,3319.3z"/>
	<path d="M2180.6,3314.7c-1,0.3-2,0.6-3,0.9C2178.6,3315.3,2179.6,3315,2180.6,3314.7z"/>
	<path d="M2135.6,3322.1c-1.4,0-2.8,0-4.2,0C2132.8,3322.1,2134.2,3322.1,2135.6,3322.1z"/>
	<path d="M2153.9,3320.8c-1.3,0.2-2.5,0.3-3.8,0.4C2151.4,3321.1,2152.7,3321,2153.9,3320.8z"/>
	<path d="M2171.8,3317.3c-1.1,0.3-2.2,0.5-3.4,0.8C2169.6,3317.8,2170.7,3317.5,2171.8,3317.3z"/>
	<path class="st2" d="M2450.1,3478.8c-0.9,0-1.8-0.3-2.6-0.8c-2-1.4-2.4-4.2-1-6.1c3-4.2,8.9-14.5,10.7-24.3   c-11.8-4.4-23.7-8.7-35.3-12.8c-2.1,3-4.1,6.6-6.3,10.6c-6.9,12.5-14.7,26.7-30.9,21.3c-4.8-1.6-8.1-4.4-9.8-8.2   c-3.7-8.5,1.4-19.4,6.7-31c0.9-1.9,1.8-3.9,2.7-5.9c-6.7-2.3-13.3-4.6-19.6-6.8c-0.6,0.9-1.2,1.8-1.8,2.7   c-10.2,16-24.2,37.8-50.7,27.2c-9.9-4-15.3-9.9-16.1-17.5c-1-10,6.7-21,15.8-30.2c-18.7-6.2-30.3-9.9-30.7-10.1   c-1.5-0.5-2.7-1.8-3-3.3l-21.3-106.5c-42.1,39.9-87.1,57.4-137.1,53.4l33.5,211c0,0,0.4,1.7,1.4,4.5   c66.5,30.6,147.4,22.1,225.5,13.9c24.2-2.5,47.1-4.9,69.5-6.2c28.1-1.3,56-0.5,83,0.2c19.9,0.6,40.4,1.1,60.8,0.8   c-7.7-28.7-27.9-64.9-79.1-85.2c-15.8-6.3-32.4-12.6-49.1-18.8c-2.9,13.5-11.4,25.6-11.9,26.3   C2452.8,3478.2,2451.4,3478.8,2450.1,3478.8z"/>
	<path class="st2" d="M2389.7,3431c-4.1,8.9-8.7,18.9-6.6,23.8c0.4,1,1.3,2.3,4.5,3.4c8.4,2.8,12.6-3.1,20.4-17.1   c1.7-3.1,3.5-6.3,5.5-9.4c-7-2.5-13.9-4.9-20.6-7.3C2391.7,3426.6,2390.7,3428.8,2389.7,3431z"/>
	<path class="st2" d="M2305,3426.3c0.2,1.5,0.6,6.2,10.6,10.2c18.4,7.4,27.8-4.6,40.1-23.8c0.2-0.3,0.4-0.6,0.6-0.9   c-12.8-4.4-24.5-8.3-34.7-11.7C2311.9,3409.1,2304.2,3419,2305,3426.3z"/>
	<path class="st3" d="M2261.1,3264c-1.6-0.5-3.2,0-4.4,1.1c-0.6,0.6-1.1,1.1-1.7,1.6c-1.2,1.2-2.4,2.3-3.6,3.4   c-1.2,1.1-2.4,2.3-3.6,3.4c-1.5,1.4-3.1,2.7-4.6,4.1c-1.2,1-2.3,2.1-3.5,3c-1.6,1.4-3.3,2.6-4.9,3.9c-1.1,0.9-2.2,1.8-3.3,2.6   c-1.8,1.4-3.6,2.6-5.4,3.9c-1,0.7-1.9,1.4-2.9,2.1c-2.2,1.5-4.4,2.9-6.6,4.3c-0.6,0.4-1.2,0.8-1.8,1.1c-5.6,3.4-11.3,6.5-17.1,9.2   c-0.5,0.2-1,0.4-1.5,0.7c-2.4,1.1-4.7,2.1-7.1,3.1c-0.8,0.3-1.7,0.6-2.5,0.9c-2.1,0.8-4.1,1.5-6.2,2.2c-1,0.3-2,0.6-3,0.9   c-1.9,0.6-3.8,1.2-5.8,1.7c-1.1,0.3-2.2,0.5-3.4,0.8c-1.8,0.4-3.7,0.9-5.5,1.2c-1.2,0.2-2.4,0.4-3.6,0.6c-1.8,0.3-3.6,0.6-5.4,0.9   c-1.3,0.2-2.5,0.3-3.8,0.4c-1.8,0.2-3.5,0.4-5.3,0.5c-1.3,0.1-2.7,0.1-4,0.2c-1.7,0.1-3.5,0.2-5.2,0.2c-1.4,0-2.8,0-4.2,0   c-1.7,0-3.4,0-5.2-0.1c-1.4-0.1-2.9-0.2-4.3-0.3c-1.1-0.1-2.3-0.2-3.4-0.3c-1.1-0.1-2.2-0.2-3.3-0.3c-1.4-0.2-2.7,0.3-3.7,1.3   c-1,1-1.4,2.4-1.2,3.7l34.5,216.9c0,0.1,0.7,3.1,2.6,7.8c0,0,0,0,0,0c0.4,1,1.2,1.9,2.2,2.3c4.3,2,8.6,3.8,12.9,5.5   c0.9,0.4,1.9,0.7,2.8,1.1c1.3,0.5,2.7,1,4,1.5c1,0.3,1.9,0.7,2.9,1c1.4,0.5,2.7,0.9,4.1,1.3c0.9,0.3,1.9,0.6,2.8,0.9   c1.5,0.5,3.1,0.9,4.6,1.3c0.8,0.2,1.6,0.5,2.4,0.7c2.3,0.6,4.6,1.2,6.9,1.7c0.8,0.2,1.6,0.4,2.5,0.6c1.5,0.4,3.1,0.7,4.6,1   c1,0.2,2.1,0.4,3.1,0.6c1.3,0.3,2.7,0.5,4,0.8c1.1,0.2,2.2,0.4,3.3,0.6c1.3,0.2,2.6,0.4,3.9,0.6c1.1,0.2,2.2,0.3,3.4,0.5   c1.3,0.2,2.6,0.4,4,0.5c1.1,0.1,2.2,0.3,3.3,0.4c1.4,0.2,2.8,0.3,4.2,0.5c1.1,0.1,2.1,0.2,3.2,0.3c1.6,0.2,3.3,0.3,4.9,0.4   c0.8,0.1,1.6,0.1,2.4,0.2c2.4,0.2,4.8,0.3,7.2,0.5c0.9,0.1,1.9,0.1,2.8,0.1c1.6,0.1,3.1,0.1,4.7,0.2c1.1,0,2.1,0.1,3.2,0.1   c1.5,0,2.9,0.1,4.4,0.1c1.1,0,2.1,0,3.2,0c1.5,0,3,0,4.5,0c0.6,0,1.1,0,1.7,0c0.3,0,0.6,0,0.9,0c3.9,0,7.9-0.1,11.9-0.2   c0.6,0,1.2,0,1.8,0c4-0.1,8-0.3,12-0.4c0.6,0,1.1-0.1,1.7-0.1c4-0.2,8.1-0.4,12.1-0.7c0.5,0,1-0.1,1.5-0.1   c4.1-0.3,8.3-0.6,12.4-0.9c0.4,0,0.8-0.1,1.2-0.1c4.3-0.3,8.5-0.7,12.8-1.1c0.2,0,0.4,0,0.7-0.1c13.6-1.2,27.2-2.7,40.8-4.1   c24.1-2.5,46.9-4.9,69.1-6.2c27.7-1.3,55.5-0.5,82.3,0.2c8.8,0.2,17.7,0.5,26.7,0.6c1.7,0,3.3,0.1,5,0.1c3.1,0.1,6.2,0.1,9.3,0.1   c2.4,0,4.8,0.1,7.2,0.1c2.5,0,5.1,0,7.6,0c3.7,0,7.3,0,11-0.1c1.3,0,2.6-0.7,3.4-1.7c0.8-1,1.1-2.4,0.8-3.7   c-7.1-31.4-27.7-73.7-85.8-96.8c-16.5-6.6-33.9-13.2-51.4-19.7c0,3-0.3,6.1-1,9c16.7,6.2,33.2,12.5,49.1,18.8   c51.3,20.4,71.4,56.6,79.1,85.2c-20.3,0.3-40.9-0.3-60.8-0.8c-27-0.7-54.9-1.5-83-0.2c-22.5,1.3-45.3,3.7-69.5,6.2   c-78.2,8.2-159,16.7-225.5-13.9c-1-2.8-1.4-4.5-1.4-4.5l-33.5-211c50,4,95-13.5,137.1-53.4l21.3,106.5c0.3,1.6,1.5,2.8,3,3.3   c0.4,0.1,12,3.9,30.7,10.1c2.4-2.4,4.9-4.7,7.3-6.9c-2.4-0.8-4.7-1.6-6.9-2.3c-3.3-1.1-6.4-2.1-9.3-3.1c-7.9-2.6-13.7-4.5-16.7-5.5   l-22.3-111.9C2263.8,3265.7,2262.7,3264.4,2261.1,3264z"/>
	<path class="st3" d="M2321.5,3400.1c10.2,3.4,21.9,7.3,34.7,11.7c1.7-2.6,3.3-5.1,5-7.6c-11.6-4-22.5-7.6-32.1-10.9   C2326.5,3395.5,2324,3397.7,2321.5,3400.1z"/>
	<path class="st3" d="M2392.7,3424.4c6.7,2.4,13.6,4.8,20.6,7.3c1.7-2.6,3.5-5.1,5.5-7.4c-7.8-2.8-15.5-5.5-23-8.1   C2395,3418.9,2393.9,3421.6,2392.7,3424.4z"/>
	<path class="st3" d="M2387.5,3413.3c-6-2.1-11.9-4.1-17.6-6.1c-1.6,2.1-3.3,4.6-5.2,7.5c6.3,2.2,12.9,4.4,19.6,6.8   C2385.6,3418.7,2386.7,3415.9,2387.5,3413.3z"/>
	<path class="st3" d="M2457.4,3438.3c-9.8-3.6-19.7-7.2-29.3-10.7c-2.2,1.8-4.2,4.2-6.2,7.1c11.6,4.2,23.5,8.5,35.3,12.8   C2457.8,3444.3,2458,3441.2,2457.4,3438.3z"/>
	<path class="st2" d="M1441.8,1816.1l24.3,74.3c0.3-0.1,0.6-0.2,1-0.2c1.4-0.1,139.4-12,287.2,6.6c86.9,11,160.2,30.2,217.8,57.3   c72.5,34,120.4,80.5,142.1,138.2c35.8,94.9-15,300.6-151.1,612c33.5,228.1,79.5,466.6,134,557.7c50.1,34.5,148.2-26.3,163.1-35.9   c0.4-53.8,7.1-984.5-20.3-1180.4c-25.4-181.7-537.8-279.5-626-295c-3.3,3.2-8.1,6.2-14.3,8.9   C1594.5,1765,1558.4,1799.8,1441.8,1816.1z"/>
	<path class="st3" d="M1613.9,1750.7c88.3,15.5,600.6,113.3,626,295c27.4,195.9,20.7,1126.6,20.3,1180.4   c-14.9,9.6-113,70.4-163.1,35.9c-54.5-91.1-100.5-329.6-134-557.7c-2.2,5.1-4.5,10.3-6.8,15.5c42.7,287.2,87.7,471.3,133.7,547.5   c0.3,0.5,0.7,1,1.2,1.3c3.5,2.5,7.2,4.5,11,6.2c3.1,1.4,6.2,2.5,9.5,3.4c7.5,2.1,15.5,3,23.7,3c42,0,89.9-24.3,114.8-38.8   c3-1.8,5.7-3.4,8-4.8c5-3.1,8.1-5.2,8.8-5.7c1.2-0.8,1.9-2.2,1.9-3.6c0.1-9.8,7.8-982.7-20.4-1184   c-12.1-86.1-124.8-163.6-335-230.3c-126.3-40-251.6-63.9-295.1-71.6c-0.4,1.7-0.8,2.9-1.1,3.5   C1616.6,1747.6,1615.4,1749.2,1613.9,1750.7z"/>
	<path d="M1858.6,3594.6c-4.3,0.1-8.6,0.2-12.9,0.3c-0.4,0-0.7,0-1.1,0c-4.2,0.1-8.5,0.2-12.7,0.3c-0.5,0-0.9,0-1.4,0   c-4.2,0.1-8.3,0.1-12.5,0.2c-0.5,0-1.1,0-1.6,0c-4.1,0-8.3,0.1-12.4,0.1c-0.3,0-0.6,0-0.9,0c-0.3,0-0.6,0-0.9,0   c-6.9,0-13.8-0.1-20.7-0.2c-0.7,0-1.4,0-2,0c-3.4-0.1-6.9-0.2-10.3-0.3c-0.2,0-0.3,0-0.5,0c-3.3-0.1-6.5-0.3-9.8-0.5   c-0.7,0-1.3-0.1-2-0.1c-3.4-0.2-6.8-0.4-10.2-0.7c-0.4,0-0.8-0.1-1.2-0.1c-3.1-0.2-6.2-0.5-9.2-0.8c-0.7-0.1-1.3-0.1-2-0.2   c-3.3-0.3-6.7-0.7-10-1.1c-0.5-0.1-1.1-0.1-1.6-0.2c-3-0.4-6-0.8-8.9-1.2c-0.6-0.1-1.2-0.2-1.8-0.3c-3.3-0.5-6.6-1-9.9-1.6   c-0.6-0.1-1.2-0.2-1.9-0.3c-2.9-0.5-5.9-1.1-8.8-1.7c-0.5-0.1-1.1-0.2-1.6-0.3c-3.3-0.7-6.5-1.4-9.7-2.2c-0.7-0.2-1.4-0.3-2.1-0.5   c-2.9-0.7-5.9-1.5-8.8-2.3c-0.4-0.1-0.8-0.2-1.3-0.3c-3.2-0.9-6.4-1.8-9.6-2.8c-0.7-0.2-1.5-0.5-2.2-0.7c-3-1-6-2-9-3   c-0.2-0.1-0.5-0.2-0.7-0.3c-3.2-1.1-6.3-2.3-9.5-3.6c-0.8-0.3-1.5-0.6-2.2-0.9c-3.2-1.3-6.3-2.6-9.5-4c0,0,0,0,0,0   c-4.2-2-8.3-4-12.4-6.1c-1.1-0.6-2.2-1.2-3.3-1.8c-2.9-1.6-5.8-3.2-8.7-4.8c-1.4-0.8-2.7-1.7-4-2.5c-2.5-1.5-5.1-3.1-7.5-4.7   c-1.5-1-2.9-2-4.3-2.9c-2.3-1.5-4.6-3.1-6.9-4.7c-1.5-1.1-3-2.2-4.4-3.3c-2.1-1.6-4.3-3.2-6.4-4.8c-1.5-1.2-3-2.4-4.5-3.6   c-2-1.6-4.1-3.3-6.1-5c-1.5-1.3-3-2.6-4.5-3.9c-1.9-1.7-3.9-3.4-5.8-5.1c-1.5-1.4-3-2.8-4.5-4.2c-1.9-1.8-3.7-3.5-5.5-5.3   c-1.5-1.5-3-3-4.5-4.5c-1.8-1.8-3.6-3.6-5.3-5.5c-1.5-1.6-3-3.1-4.4-4.7c-1.7-1.9-3.5-3.8-5.2-5.7c-1.5-1.6-2.9-3.3-4.4-5   c-1.7-1.9-3.4-3.9-5.1-5.9c-1.5-1.7-2.9-3.5-4.4-5.2c-1.7-2-3.3-4-5-6.1c-1.5-1.8-2.9-3.6-4.4-5.4c-1.7-2.1-3.3-4.2-5-6.3   c-1.4-1.9-2.9-3.7-4.3-5.6c-1.7-2.2-3.3-4.4-5-6.6c-1.4-1.9-2.8-3.8-4.3-5.7c-1.7-2.3-3.4-4.6-5.1-6.9c-1.4-1.9-2.8-3.8-4.2-5.8   c-0.5-0.8-1.1-1.5-1.6-2.2c-0.4,2.6-0.7,5.1-1,7.6c26.4,68.5,94.2,154.8,199.1,174.4c118.9,5,208.8,5.7,231.1,5.8   c-0.5-2.3-1.2-5.4-2.1-9c-1.1,0-2.3,0-3.4,0.1C1878.3,3594.2,1868.5,3594.4,1858.6,3594.6z"/>
	<path d="M1898.5,3592.1c-0.8,1.1-2.1,1.7-3.4,1.7c-1.2,0-2.3,0-3.5,0.1c0.9,3.6,1.6,6.7,2.1,9c-22.3-0.1-112.2-0.8-231.1-5.8   c-104.9-19.6-172.7-105.9-199.1-174.4c0.3-2.5,0.7-5,1-7.6c0.5,0.8,1.1,1.5,1.6,2.2c-2.6-3.7-5.3-7.4-7.9-11.2   c-0.7-0.9-0.9-2.1-0.7-3.2c-1.1,7-2.1,13.4-2.9,19.7c-0.1,0.7,0,1.4,0.3,2.1c25.2,66.2,88.2,148.9,185.4,176.1   c2.5,0.7,5.1,1.3,7.6,2h254.8c-0.6-3.1-1.7-8.1-3.4-14.6C1899.6,3589.7,1899.3,3591.1,1898.5,3592.1z"/>
	<path d="M1669.3,3581c2.9,0.8,5.9,1.6,8.8,2.3C1675.2,3582.5,1672.2,3581.8,1669.3,3581z"/>
	<path d="M1658.4,3577.8c3.2,1,6.4,2,9.6,2.8C1664.8,3579.7,1661.6,3578.8,1658.4,3577.8z"/>
	<path d="M1625.3,3565.2c3.1,1.4,6.3,2.8,9.5,4C1631.6,3568,1628.4,3566.6,1625.3,3565.2z"/>
	<path d="M1680.2,3583.7c3.2,0.8,6.5,1.5,9.7,2.2C1686.7,3585.2,1683.4,3584.5,1680.2,3583.7z"/>
	<path d="M1831.9,3595.2c4.2-0.1,8.5-0.2,12.7-0.3C1840.4,3595.1,1836.2,3595.1,1831.9,3595.2z"/>
	<path d="M1724.4,3591.5c3.3,0.4,6.7,0.8,10,1.1C1731.1,3592.2,1727.7,3591.9,1724.4,3591.5z"/>
	<path d="M1691.5,3586.2c2.9,0.6,5.8,1.2,8.8,1.7C1697.4,3587.4,1694.5,3586.8,1691.5,3586.2z"/>
	<path d="M1578.1,3537.7c2.3,1.6,4.6,3.2,6.9,4.7C1582.6,3540.8,1580.3,3539.3,1578.1,3537.7z"/>
	<path d="M1713.9,3590.1c3,0.4,5.9,0.8,8.9,1.2C1719.8,3590.9,1716.9,3590.5,1713.9,3590.1z"/>
	<path d="M1702.2,3588.2c3.3,0.6,6.6,1.1,9.9,1.6C1708.8,3589.3,1705.5,3588.8,1702.2,3588.2z"/>
	<path d="M1479.5,3435.9c1.7,2.2,3.3,4.4,5,6.6C1482.8,3440.3,1481.2,3438.1,1479.5,3435.9z"/>
	<path d="M1488.8,3448.1c1.7,2.1,3.3,4.2,5,6.3C1492.1,3452.3,1490.5,3450.2,1488.8,3448.1z"/>
	<path d="M1498.1,3459.8c1.7,2,3.3,4.1,5,6.1C1501.4,3463.9,1499.8,3461.9,1498.1,3459.8z"/>
	<path d="M1845.7,3594.9c4.3-0.1,8.6-0.2,12.9-0.3C1854.3,3594.7,1850,3594.8,1845.7,3594.9z"/>
	<path d="M1470.2,3423.2c1.7,2.3,3.4,4.7,5.1,6.9C1473.6,3427.9,1471.9,3425.6,1470.2,3423.2z"/>
	<path d="M1507.5,3471.1c1.7,2,3.4,3.9,5.1,5.9C1510.9,3475.1,1509.2,3473.1,1507.5,3471.1z"/>
	<path d="M1546.4,3511.9c1.9,1.7,3.8,3.4,5.8,5.1C1550.3,3515.3,1548.3,3513.6,1546.4,3511.9z"/>
	<path d="M1567.2,3529.5c2.1,1.6,4.3,3.2,6.4,4.8C1571.5,3532.8,1569.3,3531.2,1567.2,3529.5z"/>
	<path d="M1556.7,3521c2,1.7,4,3.3,6.1,5C1560.7,3524.3,1558.7,3522.7,1556.7,3521z"/>
	<path d="M1526.6,3492.4c1.8,1.9,3.6,3.7,5.3,5.5C1530.2,3496.1,1528.4,3494.3,1526.6,3492.4z"/>
	<path d="M1517,3482c1.7,1.9,3.5,3.8,5.2,5.7C1520.4,3485.8,1518.7,3483.9,1517,3482z"/>
	<path d="M1625.2,3565.2C1625.3,3565.2,1625.3,3565.2,1625.2,3565.2c-4.2-1.9-8.3-4-12.4-6.1   C1616.9,3561.2,1621,3563.3,1625.2,3565.2z"/>
	<path d="M1769.2,3594.9c3.4,0.1,6.9,0.2,10.3,0.3C1776.1,3595.1,1772.7,3595,1769.2,3594.9z"/>
	<path d="M1656.3,3577.1c-3-1-6-2-9-3C1650.2,3575.1,1653.2,3576.1,1656.3,3577.1z"/>
	<path d="M1736.4,3592.8c3.1,0.3,6.1,0.6,9.2,0.8C1742.5,3593.3,1739.5,3593.1,1736.4,3592.8z"/>
	<path d="M1541.9,3507.7c-1.9-1.8-3.7-3.5-5.5-5.3C1538.2,3504.2,1540.1,3505.9,1541.9,3507.7z"/>
	<path d="M1818.1,3595.4c4.2,0,8.3-0.1,12.5-0.2C1826.4,3595.3,1822.2,3595.4,1818.1,3595.4z"/>
	<path d="M1758.9,3594.4c3.3,0.2,6.5,0.3,9.8,0.5C1765.5,3594.8,1762.2,3594.6,1758.9,3594.4z"/>
	<path d="M1746.8,3593.6c3.4,0.3,6.8,0.5,10.2,0.7C1753.5,3594.1,1750.2,3593.9,1746.8,3593.6z"/>
	<path d="M1781.6,3595.3c6.9,0.2,13.8,0.2,20.7,0.2C1795.4,3595.5,1788.5,3595.4,1781.6,3595.3z"/>
	<path d="M1858.6,3594.6c9.9-0.2,19.7-0.5,29.6-0.6C1878.3,3594.2,1868.5,3594.4,1858.6,3594.6z"/>
	<path d="M1816.5,3595.4c-4.1,0-8.3,0.1-12.4,0.1C1808.2,3595.5,1812.4,3595.5,1816.5,3595.4z"/>
	<path d="M1646.5,3573.8c-3.2-1.1-6.3-2.3-9.5-3.6C1640.2,3571.4,1643.3,3572.7,1646.5,3573.8z"/>
	<path d="M1600.8,3552.4c2.9,1.7,5.8,3.3,8.7,4.8C1606.6,3555.7,1603.7,3554.1,1600.8,3552.4z"/>
	<path d="M1596.8,3550c-2.5-1.5-5.1-3.1-7.5-4.7C1591.7,3546.9,1594.3,3548.4,1596.8,3550z"/>
	<path class="st2" d="M1724.2,3416.4c-8.6,2.2-21.5,5.5-22.4,9.2c-0.1,0.5-0.3,3.2,7,9.3c7,5.8,13.3,8.4,19.1,7.7   c7.6-0.8,14-7.2,19.7-14.1c-7.6-4.1-15-8.3-22.3-12.4C1724.9,3416.2,1724.5,3416.3,1724.2,3416.4z"/>
	<path class="st2" d="M1466.4,3402.7c49.4,70.4,96,123.6,162.6,154.5c71.8,32.4,151.9,30.5,229.4,28.6c10.3-0.2,20.6-0.5,30.9-0.7   c-9.6-34.1-36-104.3-96-133.1c-3.3-1.6-6.7-3.2-10-4.9c-4.2,13.7-12.1,25.1-12.7,26c-0.9,1.2-2.2,1.9-3.6,1.9   c-0.9,0-1.7-0.3-2.5-0.8c-2-1.4-2.5-4.1-1.1-6.1c3.4-5,9-14.8,11.9-25c-6.6-3.4-13.2-6.8-19.8-10.3c-6.8,8.6-15.2,17.3-26.6,18.6   c-8.2,0.9-16.8-2.4-25.7-9.7c-5.1-4.2-11.7-10.7-10-18c1.7-7.3,10.5-10.9,21.1-13.8c-11.4-6.6-22.2-13.1-32.3-19.2   c-4.3,2.5-8.4,5.4-12.4,8.1c-10.7,7.3-19.9,13.5-28.3,11.6c-4-0.9-7.3-3.7-9.9-8.1c-3.3-5.8-3.7-11.9-1.2-17.7   c2.8-6.3,8.9-11.7,16.2-16.2c-16.8-10.8-27.2-17.9-27.5-18.1c-1.6-1.1-2.3-3.2-1.7-5.1l8.7-25.4c-0.4,0-0.9,0.1-1.3,0.1   c-0.8,0.1-1.7,0.1-2.5,0.2c-2.1,0.2-4.2,0.3-6.3,0.4c-1,0.1-1.9,0.1-2.9,0.2c-2.4,0.1-4.9,0.2-7.5,0.3c-0.6,0-1.2,0.1-1.8,0.1   c-3.1,0.1-6.3,0.1-9.5,0.1c-0.2,0-0.4,0-0.6,0c-2.2,0-4.4,0-6.6-0.1c-0.4,0-0.9,0-1.3,0c-2.1,0-4.2-0.1-6.3-0.2   c-0.9,0-1.7-0.1-2.6-0.1c-1.8-0.1-3.5-0.2-5.3-0.3c-0.9-0.1-1.8-0.1-2.7-0.2c-2.1-0.2-4.3-0.4-6.4-0.6c-0.5,0-1-0.1-1.4-0.1   c-2.6-0.3-5.2-0.6-7.8-1c-0.8-0.1-1.6-0.2-2.4-0.3c-1.9-0.3-3.8-0.6-5.6-0.9c-0.9-0.2-1.8-0.3-2.7-0.5c-1.9-0.3-3.8-0.7-5.8-1.1   c-0.7-0.2-1.5-0.3-2.2-0.5c-2.6-0.6-5.2-1.2-7.8-1.8c-0.6-0.1-1.1-0.3-1.7-0.5c-2.1-0.5-4.1-1.1-6.2-1.7c-0.9-0.3-1.7-0.5-2.6-0.8   c-1.8-0.6-3.6-1.2-5.4-1.8c-0.8-0.3-1.7-0.6-2.5-0.9c-2.4-0.9-4.7-1.7-7-2.7c-0.2-0.1-0.4-0.2-0.6-0.2c-2.5-1-5-2.1-7.4-3.3   c-0.3-0.1-0.5-0.2-0.8-0.3C1480.6,3336.4,1471.8,3370.5,1466.4,3402.7z"/>
	<path class="st2" d="M1638.4,3388c-1.4,3.2-1.2,6.3,0.8,9.8c1.9,3.4,3.6,3.8,4.2,3.9c4.6,1.1,12.7-4.4,21.3-10.3c2.8-1.9,5.8-4,9-6   c-6.8-4.2-13.1-8.1-18.8-11.8C1647.1,3377.8,1640.7,3382.7,1638.4,3388z"/>
	<path class="st3" d="M1632.8,3319c-2.6,0.3-5.4,0.5-8.2,0.8c0.4,0,0.9-0.1,1.3-0.1l-8.7,25.4c-0.6,1.9,0,3.9,1.7,5.1   c0.3,0.2,10.7,7.3,27.5,18.1c2.8-1.7,5.8-3.3,8.8-4.8c-13.9-8.9-24-15.6-28.6-18.7l9.8-28.7   C1635.9,3317.7,1634.5,3318.9,1632.8,3319z"/>
	<path class="st3" d="M1534.5,3315.3c0.7,0.2,1.5,0.3,2.2,0.5C1536,3315.6,1535.2,3315.4,1534.5,3315.3z"/>
	<path class="st3" d="M1525,3313c0.6,0.1,1.1,0.3,1.7,0.5C1526.1,3313.3,1525.6,3313.1,1525,3313z"/>
	<path class="st3" d="M1542.5,3316.8c0.9,0.2,1.8,0.3,2.7,0.5C1544.3,3317.2,1543.4,3317,1542.5,3316.8z"/>
	<path class="st3" d="M1516.2,3310.4c0.9,0.3,1.7,0.5,2.6,0.8C1518,3311,1517.1,3310.7,1516.2,3310.4z"/>
	<path class="st3" d="M1508.4,3307.8c0.8,0.3,1.7,0.6,2.5,0.9C1510,3308.4,1509.2,3308.1,1508.4,3307.8z"/>
	<path class="st3" d="M1500.7,3304.8c0.2,0.1,0.4,0.2,0.6,0.2C1501.1,3305,1500.9,3304.9,1500.7,3304.8z"/>
	<path class="st3" d="M1615.7,3320.5c2.1-0.1,4.2-0.3,6.3-0.4C1620,3320.2,1617.9,3320.3,1615.7,3320.5z"/>
	<path class="st3" d="M1722,3407.9c1.3-0.3,2.9-0.7,4.5-1.2c-12.4-7.1-24.4-14.2-35.4-20.9c-3.1,1.4-6.1,3-9.1,4.8   c10,6.1,20.9,12.6,32.3,19.2C1716.8,3409.2,1719.4,3408.5,1722,3407.9z"/>
	<path class="st3" d="M1654.8,3373.6c5.8,3.7,12.1,7.6,18.8,11.8c2.8-1.7,5.6-3.5,8.6-5c-6.4-3.9-12.4-7.7-18-11.2   C1661,3370.6,1657.8,3372,1654.8,3373.6z"/>
	<path class="st3" d="M1777,3434.1c-5.3-2.7-10.7-5.5-16-8.4c-0.6,0.8-1.2,1.6-1.8,2.4c-1.2,1.5-2.4,3.1-3.7,4.7   c6.6,3.5,13.2,7,19.8,10.3C1776.1,3440.1,1776.7,3437.1,1777,3434.1z"/>
	<path class="st3" d="M1603.7,3321c-3.1,0.1-6.3,0.1-9.5,0.1C1597.4,3321.2,1600.5,3321.1,1603.7,3321z"/>
	<path class="st3" d="M1585.7,3321.1c0.4,0,0.9,0,1.3,0C1586.6,3321.1,1586.1,3321.1,1585.7,3321.1z"/>
	<path class="st3" d="M1783.3,3447.2c3.3,1.7,6.7,3.3,10,4.9c59.9,28.8,86.4,98.9,96,133.1c-10.3,0.2-20.6,0.4-30.9,0.7   c-77.5,1.9-157.6,3.8-229.4-28.6c-66.5-30.9-113.2-84.1-162.6-154.5c5.4-32.2,14.2-66.3,26.2-101.5c0.3,0.1,0.5,0.2,0.8,0.3   c-1.8-0.8-3.6-1.7-5.3-2.6c-1.9-1-2.9-3.3-2.1-5.4c-11,31.7-19.5,62.7-25.3,92.2c-0.7,3.7-1.4,7.3-2,11c-0.4,2.1-0.8,4.2-1.1,6.3   c-0.2,1.1,0.1,2.3,0.7,3.2c2.6,3.8,5.3,7.5,7.9,11.2c1.4,1.9,2.8,3.9,4.2,5.8c1.7,2.3,3.4,4.6,5.1,6.9c1.4,1.9,2.8,3.8,4.3,5.7   c1.7,2.2,3.3,4.4,5,6.6c1.4,1.9,2.9,3.7,4.3,5.6c1.7,2.1,3.3,4.2,5,6.3c1.4,1.8,2.9,3.6,4.4,5.4c1.7,2,3.3,4.1,5,6.1   c1.5,1.8,2.9,3.5,4.4,5.2c1.7,2,3.4,3.9,5.1,5.9c1.5,1.7,2.9,3.3,4.4,5c1.7,1.9,3.5,3.8,5.2,5.7c1.5,1.6,2.9,3.2,4.4,4.7   c1.8,1.9,3.6,3.7,5.3,5.5c1.5,1.5,3,3,4.5,4.5c1.8,1.8,3.7,3.6,5.5,5.3c1.5,1.4,3,2.8,4.5,4.2c1.9,1.7,3.8,3.4,5.8,5.1   c1.5,1.3,3,2.6,4.5,3.9c2,1.7,4,3.3,6.1,5c1.5,1.2,3,2.4,4.5,3.6c2.1,1.6,4.3,3.2,6.4,4.8c1.5,1.1,2.9,2.2,4.4,3.3   c2.3,1.6,4.6,3.2,6.9,4.7c1.4,1,2.9,2,4.3,2.9c2.5,1.6,5,3.1,7.5,4.7c1.3,0.8,2.7,1.7,4,2.5c2.9,1.7,5.8,3.3,8.7,4.8   c1.1,0.6,2.2,1.2,3.3,1.8c4.1,2.1,8.2,4.2,12.5,6.2c3.1,1.4,6.3,2.8,9.5,4c0.7,0.3,1.5,0.6,2.2,0.9c3.1,1.3,6.3,2.5,9.5,3.6   c0.2,0.1,0.5,0.2,0.7,0.3c3,1.1,6,2.1,9,3c0.7,0.2,1.5,0.5,2.2,0.7c3.2,1,6.4,2,9.6,2.8c0.4,0.1,0.8,0.2,1.3,0.3   c2.9,0.8,5.9,1.6,8.8,2.3c0.7,0.2,1.4,0.3,2.1,0.5c3.2,0.8,6.5,1.5,9.7,2.2c0.5,0.1,1.1,0.2,1.6,0.3c2.9,0.6,5.8,1.2,8.8,1.7   c0.6,0.1,1.2,0.2,1.9,0.3c3.3,0.6,6.6,1.1,9.9,1.6c0.6,0.1,1.2,0.2,1.8,0.3c3,0.4,5.9,0.8,8.9,1.2c0.5,0.1,1,0.1,1.6,0.2   c3.3,0.4,6.7,0.8,10,1.1c0.7,0.1,1.3,0.1,2,0.2c3.1,0.3,6.1,0.6,9.2,0.8c0.4,0,0.8,0.1,1.2,0.1c3.4,0.3,6.8,0.5,10.2,0.7   c0.7,0,1.3,0.1,2,0.1c3.3,0.2,6.5,0.3,9.8,0.5c0.2,0,0.3,0,0.5,0c3.4,0.1,6.9,0.2,10.3,0.3c0.7,0,1.4,0,2,0   c6.9,0.2,13.8,0.2,20.7,0.2c0.3,0,0.6,0,0.9,0c0.3,0,0.6,0,0.9,0c4.1,0,8.3,0,12.4-0.1c0.5,0,1.1,0,1.6,0c4.2,0,8.3-0.1,12.5-0.2   c0.5,0,0.9,0,1.4,0c4.2-0.1,8.5-0.2,12.7-0.3c0.4,0,0.7,0,1.1,0c4.3-0.1,8.6-0.2,12.9-0.3c9.9-0.2,19.7-0.5,29.6-0.6   c1.1,0,2.3,0,3.4-0.1c1.2,0,2.3,0,3.5-0.1c1.4,0,2.6-0.7,3.4-1.7c0.8-1.1,1.1-2.5,0.8-3.8c-8.5-32.7-35.5-112.2-102.2-144.2   c-3.9-1.9-7.8-3.8-11.7-5.7C1784.9,3441.4,1784.2,3444.3,1783.3,3447.2z"/>
	<path class="st3" d="M1561,3319.5c0.5,0.1,1,0.1,1.4,0.1C1561.9,3319.6,1561.4,3319.6,1561,3319.5z"/>
	<path class="st3" d="M1550.8,3318.2c0.8,0.1,1.6,0.2,2.4,0.3C1552.4,3318.4,1551.6,3318.3,1550.8,3318.2z"/>
	<path class="st3" d="M1725.2,3416.1c7.3,4.2,14.8,8.3,22.3,12.4c1.6-1.9,3.1-3.9,4.6-5.8c0.3-0.4,0.6-0.8,0.9-1.2   c-5.4-2.9-10.7-5.8-15.9-8.8C1733.6,3414,1729.5,3415,1725.2,3416.1z"/>
	<path class="st3" d="M1568.8,3320.2c0.9,0.1,1.8,0.1,2.7,0.2C1570.6,3320.3,1569.7,3320.3,1568.8,3320.2z"/>
	<path class="st3" d="M1576.8,3320.7c0.9,0,1.7,0.1,2.6,0.1C1578.5,3320.8,1577.7,3320.8,1576.8,3320.7z"/>
	<path class="st3" d="M1612.9,3320.6c-2.4,0.1-4.9,0.2-7.5,0.3C1607.9,3320.9,1610.4,3320.8,1612.9,3320.6z"/>
	<path d="M1495.5,3292.8c36.1,17.6,78.6,20.8,113.6,19.2c-31.1-4.4-71.7-16.8-102.1-49.7C1503.7,3270.5,1499.7,3280.9,1495.5,3292.8   z"/>
	<path d="M1609,3312c-35,1.6-77.5-1.6-113.6-19.2c4.2-12,8.2-22.3,11.5-30.6c-2.2-2.4-4.3-4.9-6.4-7.6c-4,9.7-9.2,23-14.7,38.9   c-0.7,2.1,0.2,4.3,2.1,5.4c1.8,0.9,3.5,1.8,5.3,2.6c2.4,1.2,4.9,2.3,7.4,3.3c0.2,0.1,0.4,0.2,0.6,0.2c2.3,1,4.7,1.8,7,2.7   c0.8,0.3,1.7,0.6,2.5,0.9c1.8,0.6,3.6,1.2,5.4,1.8c0.9,0.3,1.7,0.5,2.6,0.8c2,0.6,4.1,1.2,6.2,1.7c0.6,0.1,1.1,0.3,1.7,0.5   c2.6,0.7,5.2,1.3,7.8,1.8c0.7,0.2,1.5,0.3,2.2,0.5c1.9,0.4,3.8,0.8,5.8,1.1c0.9,0.2,1.8,0.3,2.7,0.5c1.9,0.3,3.8,0.6,5.6,0.9   c0.8,0.1,1.6,0.2,2.4,0.3c2.6,0.4,5.2,0.7,7.8,1c0.5,0.1,1,0.1,1.4,0.1c2.1,0.2,4.3,0.4,6.4,0.6c0.9,0.1,1.8,0.1,2.7,0.2   c1.8,0.1,3.6,0.2,5.3,0.3c0.9,0,1.7,0.1,2.6,0.1c2.1,0.1,4.2,0.2,6.3,0.2c0.4,0,0.9,0,1.3,0c2.2,0,4.4,0.1,6.6,0.1   c0.2,0,0.4,0,0.6,0c3.2,0,6.4-0.1,9.5-0.1c0.6,0,1.2,0,1.8-0.1c2.5-0.1,5-0.2,7.5-0.3c1-0.1,1.9-0.1,2.9-0.2   c2.1-0.1,4.3-0.3,6.3-0.4c0.8-0.1,1.7-0.1,2.5-0.2c2.8-0.2,5.5-0.5,8.2-0.8c1.7-0.2,3.1-1.3,3.7-3l0.6-1.9   C1629.4,3314.1,1619.8,3313.5,1609,3312z"/>
	<path class="st2" d="M1441.8,1816.1c-6.3,0.9-12.8,1.7-19.7,2.5c-19.5,2.2-41.2,3.1-64.1,3.1c-140.5,0-326.6-35.6-328.8-36   c-0.5-0.1-1-0.3-1.4-0.5l-11.4-6.8c-88.7,151.5-81.3,320.6,24.7,456.4c93.6,120,283.4,129.5,426.2,116.4   c155.4-14.3,290.3-57.8,291.6-58.3c1.8-0.6,3.7,0,4.8,1.4c1.1,1.4,1.3,3.4,0.3,5c-0.7,1.2-75.4,125.7-144.6,303.5   c-63.7,163.7-135.7,407.4-117.2,639.3c46.7,67,135.3,63.9,150.3,62.8c13.5-24,143.3-255.9,261.2-512.4   c163.5-355.9,230-597,192.2-697.3c-20.9-55.5-67.2-100.3-137.6-133.3c-56.7-26.6-129.1-45.6-215.1-56.5   c-146.8-18.6-284-6.7-285.4-6.6c-2.4,0.2-4.6-1.6-4.8-4c-0.2-2.1,1.1-3.9,3-4.6L1441.8,1816.1z M1229,1918.1c1.2-2.1,3.9-2.8,6-1.5   c2.1,1.2,2.8,3.9,1.5,6c-29.1,49-110.3,76-113.8,77.2c-0.5,0.1-0.9,0.2-1.4,0.2c-1.9,0-3.6-1.2-4.2-3c-0.8-2.3,0.5-4.8,2.8-5.6   C1120.9,1991.1,1201.6,1964.2,1229,1918.1z"/>
	<path class="st3" d="M1365.6,2364.6c32.5,0.3,66.7-1.2,102.7-4.6c22.5-2.1,44.5-4.8,65.9-7.8c6.5-0.9,12.9-1.9,19.3-2.9   c93.9-14.8,170-36.3,197.4-44.5c-18.9,32.8-81.1,145-139.5,294.9c-23.5,60.2-48,131.3-68.8,208.6c-2,7.3-3.9,14.6-5.8,22   c-33,128.9-54.5,273.5-43.2,414c0.1,0.8,0.3,1.5,0.8,2.1c2,2.9,4.1,5.7,6.3,8.4c2.1,2.6,4.2,5.2,6.4,7.6   c30.3,32.9,70.9,45.3,102.1,49.7c10.8,1.5,20.4,2.1,28.1,2.2c1.4,0,2.7,0,3.9,0c9,0,14.5-0.6,14.7-0.6c1.4-0.2,2.6-1,3.3-2.2   c1.4-2.4,138.6-245.1,262.7-515c12.1-26.2,23.6-51.8,34.5-76.7c2.3-5.2,4.6-10.4,6.8-15.5c136.1-311.3,186.9-517,151.1-612   c-21.8-57.7-69.6-104.2-142.1-138.2c-57.6-27-130.9-46.3-217.8-57.3c-147.7-18.7-285.8-6.7-287.2-6.6c-0.3,0-0.7,0.1-1,0.2   c-1.9,0.6-3.2,2.5-3,4.6c0.2,2.4,2.3,4.2,4.8,4c1.4-0.1,138.6-11.9,285.4,6.6c86,10.9,158.4,29.9,215.1,56.5   c70.4,33,116.6,77.9,137.6,133.3c37.8,100.3-28.6,341.4-192.2,697.3c-117.9,256.5-247.7,488.4-261.2,512.4   c-15.1,1.1-103.6,4.2-150.3-62.8c-18.5-231.9,53.5-475.6,117.2-639.3c69.2-177.9,143.9-302.3,144.6-303.5c1-1.6,0.8-3.6-0.3-5   c-1.1-1.4-3.1-2-4.8-1.4c-1.3,0.4-136.2,44-291.6,58.3c-142.7,13.1-332.5,3.6-426.2-116.4c-106-135.8-113.4-304.9-24.7-456.4   l-3.9-2.3c-1-0.6-1.8-1.6-2-2.8c-0.2-1-0.1-2.1,0.4-3.1c-39,65.2-61.1,134.5-64.5,203.9c-4.6,94.6,25.7,186.6,87.7,266.1   c2.1,2.7,4.3,5.3,6.4,7.8c2.5,3,5.1,5.8,7.7,8.7c42.3,45.5,102.2,77,178.8,93.7c18.1,3.9,37.2,7,57.1,9.3   C1309.9,2362.7,1337.1,2364.3,1365.6,2364.6z"/>
	<path class="st3" d="M1026.3,1746.3C1026.3,1746.3,1026.3,1746.3,1026.3,1746.3c-5.2,7.6-10.1,15.4-14.8,23.2L1026.3,1746.3z"/>
	<path d="M1021,1770.9l10.7,6.3c15.3,2.9,255.6,47.7,389.5,32.6c83.1-9.4,128.8-28.3,151.9-41.7c-43,10.6-109.2,16-167.2,17.3   c-12,0.3-24.1,0.4-36.2,0.4c-117.4,0-237.4-12.9-335.1-36.2L1021,1770.9z"/>
	<path d="M1011.1,1770c-0.1,0.1-0.1,0.2-0.2,0.3c-0.5,0.9-0.7,2-0.4,3.1c0.3,1.2,1,2.2,2,2.8l3.9,2.3l11.4,6.8   c0.4,0.3,0.9,0.4,1.4,0.5c2.2,0.4,188.3,36,328.8,36c22.9,0,44.6-0.9,64.1-3.1c6.8-0.8,13.3-1.6,19.7-2.5   c116.5-16.3,152.7-51.1,157.7-56.6c-7.2,3.2-16.2,6-26.5,8.6c-23.1,13.4-68.9,32.3-151.9,41.7c-133.9,15.1-374.2-29.7-389.5-32.6   l-10.7-6.3l13.6-21.3c-1.8-0.4-3.7-0.9-5.6-1.3c-1.2-0.3-2.1-1-2.7-2.1l-14.8,23.2L1011.1,1770z"/>
	<path class="st1" d="M1627.9,1467c0.3-0.5,0.7-1,1.1-1.4c-0.1-55.1-2.6-114-9-172.5c-0.2-2.2,1.2-4.2,3.4-4.7l-86.5-364.2l-0.3-1.1   c-1.4,0.3-2.8,0.1-3.9-0.9c-18.9-17-39.8-30.9-62.6-41.8l-41.7,77.4c-0.7,1.4-2.1,2.3-3.7,2.3c-1.1,0-2.1,0.1-3.2,0.1   c-68.1,0-115.5-88.1-117.5-91.9c-0.8-1.6-0.6-3.5,0.5-4.9c0.2-0.2,3.4-4.2,8.4-11.1c-26.5,1.4-54.1,5.4-82.8,12.1   c-23.8,5.5-45.9,15.2-66,28.6l34.8,323.4c0.4,0,0.7,0,1.1,0c2.4,0.4,4.1,2.6,3.7,5c-16,107.3-86.1,190.8-108.3,215   c48.5,2.4,267.3,16,422.8,75.8c15.2,6.3,25.5,15.7,30.7,28.1c12.4,0.1,26.4,0.3,40.9,0.8L1627.9,1467z"/>
	<path class="st1" d="M1033.1,1740.2c107.7,26.1,243.4,39.4,372.7,36.4c123.7-2.8,196.1-19.5,203.8-34.6c0.8-1.8,2.5-11.2,4.6-26.7   l-71-35.1c-1.1-0.5-1.9-1.4-2.2-2.6c-0.4-1.1-0.3-2.3,0.3-3.4l1.1-2.2l-11.7-5.8c-1.1-0.5-1.9-1.4-2.2-2.6   c-0.4-1.1-0.3-2.3,0.3-3.4l0.9-1.8c-5.5-3.1-10.5-6-14.7-8.7c-4.3,5.8-7.3,9.4-7.8,10c-0.8,0.9-1.9,1.5-3.1,1.6   c-8.2,0.4-76.5,3.9-167.5,3.9c-102.5,0-233.9-4.4-341-22.5C1004.4,1676.1,1016.7,1708.7,1033.1,1740.2z"/>
	<path class="st3" d="M1167.5,885.7c1.2,2.1,0.5,4.8-1.6,6c-0.5,0.3-1.1,0.7-1.7,1l0,0.4c20-13.4,42.2-23.1,66-28.6   c28.7-6.6,56.3-10.6,82.8-12.1c1.9-2.6,4.1-5.7,6.5-9.2c-29.1,1.1-59.5,5.3-91.2,12.7c-23.6,5.5-45.6,14.9-65.6,27.7   C1164.4,883.1,1166.5,883.9,1167.5,885.7z"/>
	<path class="st3" d="M1637.7,1445.3c-0.7-49.5-3.4-101.5-9-153c-0.3-2.4-2.4-4.2-4.9-3.9c-0.2,0-0.4,0.1-0.5,0.1   c-2.1,0.5-3.6,2.5-3.4,4.7c6.4,58.4,8.8,117.4,9,172.5c1.3-1,3-1.3,4.6-0.6l4.3,1.9c0-3.7,0-7.4-0.1-11.2   C1637.8,1452.3,1637.8,1448.8,1637.7,1445.3z"/>
	<path class="st3" d="M1614.1,1715.4c-2.1,15.5-3.8,24.9-4.6,26.7c-7.7,15-80.1,31.7-203.8,34.6c-129.3,3-265-10.3-372.7-36.4   c-16.3-31.6-28.7-64.2-37.7-97.4c-3.2-0.5-6.4-1.1-9.6-1.7c9.4,35.8,22.6,71,40.4,104.9c0,0.1,0.1,0.1,0.1,0.2c0,0,0,0,0,0   c0.6,1,1.6,1.8,2.7,2.1c1.8,0.4,3.7,0.9,5.6,1.3c97.7,23.3,217.7,36.2,335.1,36.2c12.1,0,24.2-0.1,36.2-0.4   c58-1.3,124.2-6.7,167.2-17.3c10.3-2.6,19.3-5.4,26.5-8.6c6.2-2.7,11-5.7,14.3-8.9c1.5-1.5,2.7-3,3.5-4.6c0.3-0.6,0.7-1.8,1.1-3.5   c1.1-4.4,2.5-12.2,4.1-23L1614.1,1715.4z"/>
	<path class="st3" d="M1470.1,880.4c22.7,10.9,43.7,24.8,62.6,41.8c1.1,1,2.6,1.2,3.9,0.9c0.8-0.2,1.7-0.6,2.3-1.3   c1.6-1.8,1.5-4.6-0.3-6.2c-7-6.3-14.3-12.2-21.9-17.7c-0.2-0.2-0.5-0.3-0.7-0.5c-1.6-1.1-3.2-2.2-4.8-3.4   c-11.7-8.1-24-15.3-36.9-21.5L1470.1,880.4z"/>
	<path d="M1652,1724.2l8.5,4.2l9.7-19c-3-0.3-6-0.9-9-1.6l-7.4,14.5C1653.4,1723.2,1652.8,1723.8,1652,1724.2z"/>
	<path d="M1757.4,1538.4l-8-3.6l-26.4,51.8c1.7,3.2,3.3,6.5,4.8,9.9L1757.4,1538.4z"/>
	<path d="M1670.2,1709.5l-9.7,19l-8.5-4.2c-0.6,0.3-1.3,0.5-2.1,0.5c-0.7,0-1.3-0.1-1.9-0.5l-105.7-52.2l-1.1,2.2   c-0.5,1-0.6,2.3-0.3,3.4c0.4,1.1,1.2,2,2.2,2.6l71,35.1l8.5,4.2l37.9,18.7c0.6,0.3,1.3,0.5,1.9,0.5c1.6,0,3.2-0.9,3.9-2.4   l13.5-26.5c-0.9,0-1.8,0.1-2.7,0.1C1674.9,1709.9,1672.5,1709.8,1670.2,1709.5z"/>
	<path d="M1749.5,1534.8l8,3.6l-29.6,58c1.6,3.6,3,7.3,4.3,11l35.3-69.2c0.5-1.1,0.6-2.3,0.2-3.5c-0.4-1.1-1.3-2.1-2.4-2.6   l-11.8-5.3L1749.5,1534.8z"/>
	<path class="st2" d="M1648,1714.5l4.6-9.1c-8.2-2.8-16-6.4-23-9.7c-8.6-4-16-7.5-21.7-8.3c-9.3-1.3-18.7-3.6-27.9-6.6L1648,1714.5z   "/>
	<path class="st2" d="M1706.3,1561.7c3.9,4.6,7.8,9.9,11.5,15.8l27-53l-111-49.7l-34.2,66.7   C1646.6,1543.6,1695.4,1548.9,1706.3,1561.7z"/>
	<path class="st3" d="M1528.4,1663.8c0.4,1.1,1.2,2,2.2,2.6l11.7,5.8l105.7,52.2c0.6,0.3,1.3,0.5,1.9,0.5c0.7,0,1.4-0.2,2.1-0.5   c0.8-0.4,1.4-1,1.9-1.9l7.4-14.5c-2.9-0.7-5.8-1.5-8.6-2.5l-4.6,9.1l-68-33.6c-18.7-6-36.3-14.5-50.4-22.4l-0.9,1.8   C1528.1,1661.4,1528,1662.7,1528.4,1663.8z"/>
	<path class="st3" d="M1629,1465.7c-0.4,0.4-0.8,0.8-1.1,1.4l-38,74.1c3.2,0.1,6.5,0.2,9.7,0.4l34.2-66.7l111,49.7l-27,53   c1.8,2.9,3.6,6,5.2,9.1l26.4-51.8l4-7.9l1.4-2.7c0.5-1.1,0.6-2.3,0.2-3.5c-0.4-1.1-1.3-2.1-2.4-2.6l-114.8-51.3l-4.3-1.9   C1632,1464.3,1630.2,1464.6,1629,1465.7z"/>
	<path class="st2" d="M1609.1,1678.8c7,1,15,4.7,24.2,9c22.9,10.7,51.4,24.1,77.8-1.4c40.2-39,4.3-100.5-11.5-119   c-11.1-13-83.4-17.8-147.9-18.3c6.7,31.8-16.1,71.3-31.7,93.6C1540.3,1655.1,1575.5,1674.1,1609.1,1678.8z"/>
	<path class="st3" d="M1727.8,1596.5c-1.5-3.4-3.1-6.7-4.8-9.9c-1.7-3.2-3.4-6.2-5.2-9.1c-3.7-5.9-7.6-11.2-11.5-15.8   c-10.9-12.8-59.8-18.1-106.8-20.2c-3.2-0.1-6.5-0.3-9.7-0.4c-14.5-0.5-28.5-0.8-40.9-0.8c1,2.4,1.8,4.8,2.4,7.4   c0.1,0.5,0.2,1,0.3,1.4c64.6,0.6,136.9,5.3,147.9,18.3c15.8,18.5,51.7,80,11.5,119c-26.3,25.5-54.8,12.1-77.8,1.4   c-9.2-4.3-17.2-8-24.2-9c-33.6-4.7-68.9-23.6-89.1-36.1c-1.9,2.7-3.6,5.1-5.2,7.2c4.3,2.7,9.2,5.6,14.7,8.7   c14.1,7.9,31.8,16.4,50.4,22.4c9.2,2.9,18.5,5.3,27.9,6.6c5.7,0.8,13.1,4.3,21.7,8.3c7,3.3,14.8,6.9,23,9.7   c2.8,0.9,5.7,1.8,8.6,2.5c3,0.7,6,1.2,9,1.6c2.3,0.3,4.7,0.4,7,0.4c0.9,0,1.8,0,2.7-0.1c12.3-0.6,25-5.2,37.3-17.1   c24.7-24,24.6-56.6,14.9-85.2C1730.8,1603.7,1729.4,1600,1727.8,1596.5z"/>
	<path class="st1" d="M1164.2,892.7c-44.5,26.5-118.4,111.6-188.9,217.8c-78.1,117.5-136.2,234.9-159.6,322   c-15.3,57-15.3,99-0.1,125c71.6,122.8,647.8,97.1,686,95.2c7.8-9.6,50.6-64.9,41.4-103c-3.2-13.3-12.3-22.9-27.9-29.3   c-173.4-66.7-427-75.5-429.6-75.6c-1.8-0.1-3.3-1.2-4-2.8c-0.6-1.6-0.2-3.5,1-4.8c0.9-0.9,94.1-92.7,112.6-217.1   c0.3-2,1.9-3.5,3.9-3.7l-34.8-323.4L1164.2,892.7z"/>
	<path class="st3" d="M985.6,1079.6c-77.2,111.9-151,248.2-178.4,350.6c-15.9,59.3-15.6,103.6,0.8,131.8   c22.8,39.1,91.7,63.8,177.8,79.2c3.2,0.6,6.4,1.1,9.6,1.7c107.1,18.1,238.5,22.5,341,22.5c91,0,159.3-3.5,167.5-3.9   c1.2-0.1,2.3-0.6,3.1-1.6c0.5-0.6,3.5-4.2,7.8-10c1.6-2.1,3.3-4.6,5.2-7.2c15.5-22.3,38.4-61.8,31.7-93.6c-0.1-0.5-0.2-1-0.3-1.4   c-0.6-2.6-1.5-5-2.4-7.4c-5.2-12.3-15.5-21.7-30.7-28.1c-155.5-59.8-374.3-73.4-422.8-75.8c22.3-24.2,92.4-107.6,108.3-215   c0.4-2.4-1.3-4.6-3.7-5c-0.4-0.1-0.8-0.1-1.1,0c-1.9,0.2-3.6,1.7-3.9,3.7c-18.5,124.4-111.6,216.2-112.6,217.1   c-1.3,1.2-1.7,3.1-1,4.8c0.6,1.6,2.2,2.8,4,2.8c2.5,0.1,256.2,8.9,429.6,75.6c15.5,6.4,24.6,16,27.9,29.3   c9.2,38.1-33.6,93.4-41.4,103c-38.1,1.9-614.3,27.5-686-95.2c-15.2-26-15.1-68.1,0.1-125c23.3-87.1,81.5-204.4,159.6-322   c70.6-106.3,144.4-191.3,188.9-217.8c0.6-0.3,1.1-0.7,1.7-1c2.1-1.2,2.8-3.9,1.6-6c-1-1.8-3-2.5-4.9-2.1c-0.4,0.1-0.8,0.2-1.1,0.4   c-43.1,24.6-107.8,97.9-170.8,188.3C988.9,1074.7,987.2,1077.2,985.6,1079.6z"/>
	<path class="st2" d="M1502.2,597.8c0.3,3.8,1.5,10.2,2.4,15.2c1.7,9.7,3.7,20.6,3.5,28.2c-0.2,7.4-2.2,12.6-6,15.3   c-4,2.9-8.3,1.7-8.8,1.6c-0.7-0.2-1.4-0.6-1.9-1.2c-4.2-4.4-17.4-15.7-27.5-14.7c-3.9,0.4-7,2.6-9.6,6.8   c-10.4,16.9,13.6,44.6,23.7,53.9c1.1,1,1.6,2.4,1.4,3.8c-3.7,27.9-13.7,45.3-29.8,51.5c-4.3,1.7-9,2.5-14,2.5   c-15.3,0-33.9-7.8-54.9-22.9c-18.9,64.9-58.2,117.1-67.6,128.9c8.2,14.3,51.7,84.7,108.4,84.7c0.1,0,0.2,0,0.2,0l63.3-117.5   l-18.6-40.1c-0.9-1.8-0.3-4,1.2-5.3c1.6-1.3,3.8-1.3,5.4-0.1l29.4,22.4c6.9,2.7,85,32.2,113.9,0.9c18.3-19.8,45.8-124,33.1-209.5   C1592.5,612.6,1520.8,601.1,1502.2,597.8z"/>
	<path class="st3" d="M1313,852.4c-5,6.9-8.3,10.9-8.4,11.1c-1.1,1.4-1.3,3.3-0.5,4.9c2,3.8,49.4,91.9,117.5,91.9c1,0,2.1,0,3.2-0.1   c1.6-0.1,3-0.9,3.7-2.3l41.7-77.4l4.2-7.8l28.2-52.3c17.4,6.5,89.9,30.7,120.5-2.5c21.7-23.5,47.4-132.4,35.2-217.2   c-2.8,0.6-5.6,1.2-8.5,1.7c12.6,85.4-14.8,189.7-33.1,209.5c-28.9,31.3-107,1.8-113.9-0.9l0.5,0.4c1.7,1.3,2.2,3.7,1.2,5.6   l-10.4,19.3c-0.8,1.4-2.3,2.3-3.9,2.3c0,0-0.1,0-0.1,0c-1.7,0-3.2-1-3.9-2.6l-0.9-2l-63.3,117.5c-0.1,0-0.2,0-0.2,0   c-56.7,0-100.1-70.4-108.4-84.7c9.3-11.8,48.7-64,67.6-128.9c-2.5-1.8-5.1-3.8-7.7-5.8c-13.2,46.9-37.8,87.9-53.7,111.1   C1317,846.7,1314.9,849.7,1313,852.4z"/>
	<path d="M1373.6,721.1c30.4,25.1,56.3,35.4,72.9,29c12.4-4.8,20.5-19.1,23.9-42.3c-7.8-7.6-38.2-39.7-23.5-63.4   c4.1-6.6,9.5-10.2,16.2-10.9c14.1-1.5,29.1,11.8,33.5,16.1c0.1-0.1,0.3-0.1,0.5-0.3c0.5-0.4,2.1-2.1,2.2-8.3   c0.2-6.7-1.7-17.2-3.4-26.5c-3-16.9-4.3-23.9,1.2-26c0.8-0.3,1.6-0.4,2.5-0.2c1.5,0.3,146.5,28.5,198.5-14.7   c12.3-10.3,18.2-23.4,18-40.3c-0.4-28-8-46.7-22.7-55.5c-27-16.3-69.8,5-70.2,5.3c-2,1-4.5,0.3-5.7-1.6c-1.2-1.9-0.8-4.4,1-5.8   c0.3-0.3,33.3-26.3,33.2-50.8c0-8.5-4-15.7-12.1-22c-20.2-15.7-74.7-11.5-124,9.7c-40,17.2-65.2,41.1-67.5,64   c-0.1,1.3-0.8,2.5-1.9,3.2c-1.1,0.7-2.5,0.9-3.7,0.5c-17.7-5.5-32.6,4.5-41.9,13.9C1364.5,530,1343.1,621.6,1373.6,721.1z"/>
	<path d="M1380.8,737.9c21,15.2,39.6,22.9,54.9,22.9c5,0,9.7-0.8,14-2.5c16-6.2,26-23.6,29.8-51.5c0.2-1.4-0.3-2.9-1.4-3.8   c-10.1-9.3-34.1-37-23.7-53.9c2.6-4.2,5.7-6.4,9.6-6.8c10.1-1,23.3,10.2,27.5,14.7c0.5,0.5,1.2,1,1.9,1.2c0.5,0.1,4.7,1.3,8.8-1.6   c3.8-2.7,5.8-7.9,6-15.3c0.2-7.6-1.8-18.6-3.5-28.2c-0.9-5-2-11.4-2.4-15.2c18.6,3.4,90.4,14.9,147.4,4.6c2.9-0.5,5.7-1.1,8.5-1.7   c17.8-4,33.7-10.4,45.5-20.3c14.3-11.9,21.4-27.8,21.1-47.2c-0.5-31.3-9.5-52.4-27-63c-18.2-11-41.4-7.8-57.9-3   c9.8-11,20.5-26.5,20.5-42.3c0-11.2-5.2-21-15.5-29c-26.1-20.3-87.9-10.7-132.9,8.6c-40.9,17.5-66.8,41.4-72,66.2   c-15.6-2.9-31.7,3.1-45.8,17.3c-37.8,37.9-60.6,133.9-28.5,237.1c0.3,0.8,0.7,1.5,1.4,2.1c2.1,1.7,4.2,3.4,6.2,5   C1375.7,734.1,1378.3,736.1,1380.8,737.9z M1442.2,480.2c1.3,0.4,2.6,0.2,3.7-0.5c1.1-0.7,1.8-1.9,1.9-3.2   c2.3-22.9,27.5-46.8,67.5-64c49.3-21.2,103.8-25.4,124-9.7c8.2,6.3,12.1,13.6,12.1,22c0,24.5-32.9,50.5-33.2,50.8   c-1.8,1.4-2.2,3.9-1,5.8c1.2,1.9,3.7,2.6,5.7,1.6c0.4-0.2,43.3-21.6,70.2-5.3c14.6,8.9,22.3,27.5,22.7,55.5   c0.2,16.8-5.6,30-18,40.3c-51.9,43.2-197,15-198.5,14.7c-0.8-0.2-1.7-0.1-2.5,0.2c-5.5,2.1-4.2,9.1-1.2,26   c1.7,9.3,3.5,19.7,3.4,26.5c-0.2,6.2-1.8,7.9-2.2,8.3c-0.2,0.1-0.3,0.2-0.5,0.3c-4.4-4.3-19.4-17.5-33.5-16.1   c-6.7,0.7-12.1,4.4-16.2,10.9c-14.7,23.7,15.7,55.8,23.5,63.4c-3.5,23.2-11.5,37.4-23.9,42.3c-16.6,6.5-42.5-3.8-72.9-29   c-30.5-99.5-9.1-191.2,26.7-227.1C1409.6,484.7,1424.4,474.8,1442.2,480.2z"/>
	<path d="M3163.9,3607.4c0-2.4-2-4.4-4.4-4.4H2607h-8.9h-310.6h-44.8h-38.9h-301.1h-254.8h-5.9H738.7H504.2H499h-346H51.7   c-2.4,0-4.4,2-4.4,4.4c0,2.4,2,4.4,4.4,4.4h2190.5h42.8h317h557.4C3161.9,3611.8,3163.9,3609.8,3163.9,3607.4z"/>
	<path d="M1646.4,3368.3c-7.3,4.5-13.4,9.9-16.2,16.2c-2.5,5.7-2.1,11.9,1.2,17.7c2.5,4.5,5.9,7.2,9.9,8.1c8.4,2,17.6-4.3,28.3-11.6   c4-2.7,8.2-5.5,12.4-8.1c3-1.8,6-3.4,9.1-4.8c13-5.9,27-7.6,42.5,3.4c10,7.1,9.6,10.1,9.6,10.2c-0.5,2.6-9.4,5.3-16.6,7.2   c-1.6,0.4-3.2,0.8-4.5,1.2c-2.6,0.7-5.2,1.3-7.7,2c-10.6,2.9-19.5,6.5-21.1,13.8c-1.7,7.3,4.9,13.8,10,18   c8.8,7.4,17.5,10.6,25.7,9.7c11.4-1.3,19.7-10,26.6-18.6c1.3-1.6,2.5-3.2,3.7-4.7c0.6-0.8,1.2-1.6,1.8-2.4c3.5-4.5,7.3-9,9.5-9.1   c0.7,0,1.7,0.9,2.2,1.5c3.7,4.2,4.8,9.9,4.3,16c-0.2,2.9-0.9,6-1.7,9c-2.9,10.2-8.5,20.1-11.9,25c-1.4,2-0.9,4.7,1.1,6.1   c0.8,0.5,1.6,0.8,2.5,0.8c1.4,0,2.8-0.7,3.6-1.9c0.6-0.9,8.4-12.3,12.7-26c0.9-2.9,1.6-5.8,2.1-8.8c1.5-9.3,0.5-18.7-6.1-26.1   c-2.7-3.1-5.8-4.6-9.1-4.5c-6.4,0.2-11.4,6.4-17.1,13.7c-0.3,0.4-0.6,0.8-0.9,1.2c-1.5,1.9-3,3.9-4.6,5.8   c-5.7,6.9-12,13.3-19.7,14.1c-5.8,0.6-12-1.9-19.1-7.7c-7.3-6.1-7.1-8.8-7-9.3c0.9-3.8,13.8-7.1,22.4-9.2c0.4-0.1,0.7-0.2,1.1-0.3   c4.3-1.1,8.3-2.1,12-3.4c7.8-2.6,13.5-5.9,14.6-11.7c1.4-7.6-6.8-14.5-13.1-19c-21.1-15-40.3-10.3-56.4-1.7c-3,1.6-5.8,3.3-8.6,5   c-3.1,2-6.1,4-9,6c-8.6,5.8-16.7,11.3-21.3,10.3c-0.6-0.1-2.3-0.5-4.2-3.9c-2-3.4-2.2-6.6-0.8-9.8c2.3-5.3,8.7-10.2,16.5-14.4   c3-1.6,6.2-3.1,9.4-4.5c10.8-4.6,22.2-7.9,28.5-9.3c2.4-0.5,3.9-2.9,3.3-5.3c-0.5-2.4-2.9-3.9-5.3-3.3c-3.1,0.7-20,4.8-35.5,12.2   C1652.2,3365,1649.3,3366.6,1646.4,3368.3z"/>
	<path d="M2465.3,3433.4c-2.6-7.9-8.8-13.5-18.4-16.6c-13-4.2-21.6,0.2-28.1,7.5c-2,2.3-3.8,4.8-5.5,7.4c-2,3.1-3.8,6.3-5.5,9.4   c-7.7,14.1-12,19.9-20.4,17.1c-3.1-1-4-2.4-4.5-3.4c-2.1-4.8,2.5-14.9,6.6-23.8c1-2.2,2-4.4,3-6.6c1.2-2.8,2.3-5.5,3.2-8.2   c1.9-5.9,2.7-11.6,0.8-16.3c-1.5-3.8-4.5-6.7-8.9-8.5c-11.5-4.8-19.5,2.8-26.6,12.8c-1.7,2.4-3.4,5-5,7.6c-0.2,0.3-0.4,0.6-0.6,0.9   c-12.3,19.1-21.7,31.1-40.1,23.8c-9.9-4-10.4-8.7-10.6-10.2c-0.7-7.2,7-17.2,16.5-26.2c2.5-2.3,5-4.6,7.7-6.7   c4.7-3.9,9.4-7.3,13.5-10c2-1.3,2.6-4.1,1.3-6.1c-1.3-2-4.1-2.6-6.1-1.3c-1.9,1.2-9.9,6.6-18.5,14.1c-2.4,2.1-4.9,4.4-7.3,6.9   c-9.1,9.2-16.9,20.2-15.8,30.2c0.8,7.7,6.2,13.6,16.1,17.5c26.5,10.6,40.5-11.3,50.7-27.2c0.6-0.9,1.2-1.8,1.8-2.7   c1.9-2.9,3.6-5.4,5.2-7.5c5.3-7,9.4-9.8,14.5-7.7c2.8,1.2,3.6,2.6,4,3.6c1,2.5,0.4,6.1-0.9,10.2c-0.8,2.6-2,5.4-3.2,8.2   c-0.9,2-1.8,3.9-2.7,5.9c-5.3,11.6-10.4,22.5-6.7,31c1.7,3.9,5,6.6,9.8,8.2c16.2,5.4,24-8.8,30.9-21.3c2.2-4,4.2-7.6,6.3-10.6   c2-2.9,4-5.4,6.2-7.1c4.3-3.5,9.3-4.6,16.1-2.4c6.9,2.2,11,5.8,12.7,11c0.2,0.7,0.4,1.4,0.5,2.1c0.5,2.9,0.4,6.1-0.2,9.3   c-1.8,9.8-7.7,20.1-10.7,24.3c-1.4,2-1,4.7,1,6.1c0.8,0.6,1.7,0.8,2.6,0.8c1.4,0,2.7-0.6,3.6-1.8c0.5-0.7,9-12.8,11.9-26.3   c0.6-3,1-6,1-9C2466.5,3438.8,2466.1,3436.1,2465.3,3433.4z"/>
	<path d="M3400.6,3442.6c0.3,2.4,2.6,4.1,5,3.7c0.1,0,0.6-0.1,1.6-0.2c6.9-0.8,34.5-3.2,67.8,2.1c40.8,6.6,90,24.8,120.1,72.2   c0.8,1.3,2.3,2,3.7,2c0.8,0,1.6-0.2,2.4-0.7c2.1-1.3,2.7-4,1.4-6.1c-30-47.2-77.7-66.9-118.8-74.8c-27.7-5.3-52.4-5.2-66.6-4.4   c-7.9,0.4-12.6,1.1-12.8,1.1c-0.5,0.1-1,0.3-1.5,0.5c-0.7,0.4-1.3,1-1.7,1.6C3400.7,3440.6,3400.4,3441.6,3400.6,3442.6z"/>
	<path d="M3547.1,3325.6c0.1,2.4,2,4.3,4.5,4.3c0.1,0,0.5,0,1.3,0c5.6,0,29.1,0.2,56.1,5.5c34.5,6.7,74.8,21.6,90.7,54.5   c0.8,1.6,2.3,2.5,4,2.5c0.6,0,1.3-0.1,1.9-0.4c2.2-1.1,3.1-3.7,2.1-5.9c-16.5-34.1-55.1-50.3-89.9-58c-20.4-4.5-39.4-6.1-51.9-6.7   c-8.1-0.3-13.5-0.3-14.5-0.2c-0.8,0-1.6,0.3-2.3,0.7c-0.1,0-0.2,0.1-0.2,0.1C3547.7,3322.8,3547,3324.1,3547.1,3325.6z"/>
	<path d="M3634.4,3277.4c0.5,0.2,1,0.3,1.6,0.3c1.8,0,3.5-1.1,4.1-2.8c1.4-3.7,2.7-7.4,3.8-11.1c16.3-54.1-1.6-95.5-2.4-97.3   c-1-2.2-3.6-3.2-5.8-2.2c-2.2,1-3.2,3.6-2.2,5.8c0.2,0.4,19.4,44.8-1,100.3c-0.2,0.5-0.3,0.9-0.5,1.4   C3631,3274,3632.2,3276.6,3634.4,3277.4z"/>
	<path d="M3484.2,3376.5c0.5,0.2,1,0.3,1.5,0.3c1.8,0,3.5-1.1,4.1-2.9c1.5-4.2,2.6-8.4,3.4-12.7c9.2-50.1-30.2-103.7-32.1-106.1   c-1.5-1.9-4.2-2.4-6.2-0.9c-1.9,1.5-2.3,4.2-0.9,6.2c0.5,0.6,44.8,60.8,27.8,109.5c-0.1,0.3-0.2,0.7-0.3,1   C3480.7,3373.2,3481.9,3375.7,3484.2,3376.5z"/>
	<path d="M1117.3,1996.9c0.6,1.9,2.3,3,4.2,3c0.5,0,0.9-0.1,1.4-0.2c3.4-1.1,84.7-28.2,113.8-77.2c1.2-2.1,0.6-4.8-1.5-6   c-2.1-1.2-4.8-0.6-6,1.5c-27.4,46.1-108.1,73-108.9,73.3C1117.8,1992.1,1116.5,1994.6,1117.3,1996.9z"/>
	<polygon points="1490.3,824.2 1494.8,816 1482,806.3  "/>
	<path d="M1467.8,788.5c-1.6,1.3-2.1,3.5-1.2,5.3l18.6,40.1l0.9,2c0.7,1.5,2.2,2.5,3.9,2.6c0,0,0.1,0,0.1,0c1.6,0,3.1-0.9,3.9-2.3   l10.4-19.3c1-1.9,0.5-4.3-1.2-5.6l-0.5-0.4l-29.4-22.4C1471.6,787.2,1469.4,787.2,1467.8,788.5z M1490.3,824.2l-8.3-17.9l12.7,9.7   L1490.3,824.2z"/>
	
		<ellipse transform="matrix(0.7071 -0.7071 0.7071 0.7071 -1115.7438 2598.2019)" class="st1" cx="2578.4" cy="2645.9" rx="81" ry="81"/>
</g>
<script xmlns="" id="vsc-settings-data">{"audioBoolean":true,"blacklist":"www.instagram.com\nx.com\nimgur.com\nteams.microsoft.com\nmeet.google.com","controllerButtonSize":14,"controllerOpacity":0.3,"defaultLogLevel":4,"displayKeyCode":86,"enabled":true,"forceLastSavedSpeed":false,"keyBindings":[{"action":"slower","force":false,"key":83,"predefined":true,"value":0.1},{"action":"faster","force":false,"key":68,"predefined":true,"value":0.1},{"action":"rewind","force":false,"key":90,"predefined":true,"value":10},{"action":"advance","force":false,"key":88,"predefined":true,"value":10},{"action":"reset","force":false,"key":82,"predefined":true,"value":1},{"action":"fast","force":false,"key":71,"predefined":true,"value":1.8},{"action":"display","force":false,"key":86,"predefined":true,"value":0},{"action":"mark","force":false,"key":77,"predefined":true,"value":0},{"action":"jump","force":false,"key":74,"predefined":true,"value":0}],"lastSpeed":1,"logLevel":3,"rememberSpeed":false,"speeds":{"blob:https://megacloud.blog/ce96e460-55e7-4935-981f-047158843def":1},"startHidden":false,"version":"0.5.3"}</script><script xmlns=""/></svg>